<?xml version="1.0" encoding="utf-8"?>
<!-- Generator: Adobe Illustrator 24.1.1, SVG Export Plug-In . SVG Version: 6.00 Build 0)  -->
<svg version="1.1" id="Layer_1" xmlns="http://www.w3.org/2000/svg" xmlns:xlink="http://www.w3.org/1999/xlink" x="0px" y="0px"
	 viewBox="0 0 68 80" style="enable-background:new 0 0 68 80;" xml:space="preserve">
<style type="text/css">
	.st0{fill:#DFE0E2;}
</style>
<g>
	<path class="st0" d="M40.3,54.9c-0.4,0-0.8-0.4-0.8-0.8v-3.2c0-3-2.5-5.5-5.5-5.5H23c-3,0-5.5,2.5-5.5,5.5v3.2
		c0,0.4-0.4,0.8-0.8,0.8c-0.4,0-0.8-0.3-0.8-0.8v-3.2c0-3.9,3.1-7,7-7h11c3.9,0,7,3.2,7,7v3.2C41,54.5,40.7,54.9,40.3,54.9z"/>
	<path class="st0" d="M28.5,39.2c-3.9,0-7-3.1-7-7s3.2-7,7-7s7,3.2,7,7S32.4,39.2,28.5,39.2z M28.5,26.7c-3,0-5.5,2.5-5.5,5.5
		s2.5,5.5,5.5,5.5s5.5-2.5,5.5-5.5S31.6,26.7,28.5,26.7z"/>
	<path class="st0" d="M46.6,43.9c-0.4,0-0.8-0.4-0.8-0.8v-3.9h-3.9c-0.4,0-0.8-0.4-0.8-0.8c0-0.4,0.4-0.8,0.8-0.8h3.9v-3.9
		c0-0.4,0.4-0.8,0.8-0.8c0.4,0,0.8,0.4,0.8,0.8v3.9h3.9c0.4,0,0.8,0.4,0.8,0.8c0,0.4-0.4,0.8-0.8,0.8h-3.9v3.9
		C47.3,43.6,47,43.9,46.6,43.9z"/>
</g>
</svg>
