<svg xmlns="http://www.w3.org/2000/svg" width="18.969" height="18" viewBox="0 0 18.969 18">
  <path id="Path_3717" data-name="Path 3717" d="M427.433,989.926l-1.168-13.04h-1.233v-2.964a2,2,0,0,1,2-2h14.977a2,2,0,0,1,2,2v2.964h-1.233l-.445,5.346h1.14v1.658h-1.279l-.583,6.036Zm12.642-1.657.448-4.413a7.58,7.58,0,0,1-6.265-4.646,3.181,3.181,0,0,1-2.795-2.324h-3.534l1.029,11.383Zm-4.146-9.382a5.949,5.949,0,0,0,4.732,3.316l.443-5.317H437.57A3.193,3.193,0,0,1,435.929,978.887Zm-2.918-3.659v.83a1.515,1.515,0,0,0,.746,1.3,7.657,7.657,0,0,1-.069-1.026v-1.1h1.657v1.1a5.935,5.935,0,0,0,.074.932,1.5,1.5,0,0,0,.6-1.2v-.83h6.322v-1.306a.339.339,0,0,0-.339-.338H427.028a.339.339,0,0,0-.339.338v1.306Z" transform="translate(-425.032 -971.926)" fill="#757a85"/>
</svg>
