<?xml version="1.0" encoding="utf-8"?>
<!-- Generator: Adobe Illustrator 24.1.1, SVG Export Plug-In . SVG Version: 6.00 Build 0)  -->
<svg version="1.1" id="Layer_1" xmlns="http://www.w3.org/2000/svg" xmlns:xlink="http://www.w3.org/1999/xlink" x="0px" y="0px"
	 viewBox="0 0 67.9 79.8" style="enable-background:new 0 0 67.9 79.8;" xml:space="preserve">
<style type="text/css">
	.st0{fill:#C6C6C6;}
</style>
<g id="building" transform="translate(-38.05)">
	<path id="Path_3303" class="st0" d="M76.1,25.9h7.2c0.9,0,1.6-0.7,1.6-1.6v-7.2c0-0.9-0.7-1.6-1.6-1.6h-7.2c-0.9,0-1.6,0.7-1.6,1.6
		v7.2C74.5,25.3,75.2,25.9,76.1,25.9z M77.6,18.8h4.1v4.1h-4.1V18.8z"/>
	<path id="Path_3304" class="st0" d="M61.9,25.9h7.2c0.9,0,1.6-0.7,1.6-1.6c0,0,0,0,0,0v-7.2c0-0.9-0.7-1.6-1.6-1.6l0,0h-7.2
		c-0.9,0-1.6,0.7-1.6,1.6c0,0,0,0,0,0v7.2C60.4,25.3,61.1,25.9,61.9,25.9L61.9,25.9z M63.5,18.8h4.1v4.1h-4.1V18.8z"/>
	<path id="Path_3305" class="st0" d="M76.1,41.8h7.2c0.9,0,1.6-0.7,1.6-1.6V33c0-0.9-0.7-1.6-1.6-1.6h-7.2c-0.9,0-1.6,0.7-1.6,1.6
		v7.2C74.5,41.1,75.2,41.8,76.1,41.8z M77.6,34.6h4.1v4.1h-4.1V34.6z"/>
	<path id="Path_3306" class="st0" d="M61.9,41.8h7.2c0.9,0,1.6-0.7,1.6-1.6v0V33c0-0.9-0.7-1.6-1.6-1.6h0h-7.2
		c-0.9,0-1.6,0.7-1.6,1.6v0v7.2C60.4,41.1,61.1,41.8,61.9,41.8L61.9,41.8z M63.5,34.6h4.1v4.1h-4.1V34.6z"/>
	<path id="Path_3307" class="st0" d="M76.1,57.6h7.2c0.9,0,1.6-0.7,1.6-1.6v-7.2c0-0.9-0.7-1.6-1.6-1.6h-7.2c-0.9,0-1.6,0.7-1.6,1.6
		v7.2C74.5,56.9,75.2,57.6,76.1,57.6z M77.6,50.4h4.1v4.1h-4.1V50.4z"/>
	<path id="Path_3308" class="st0" d="M69.1,57.6c0.9,0,1.6-0.7,1.6-1.6v-7.2c0-0.9-0.7-1.6-1.6-1.6h-7.2c-0.9,0-1.6,0.7-1.6,1.6v7.2
		c0,0.9,0.7,1.6,1.6,1.6H69.1z M63.5,50.4h4.1v4.1h-4.1V50.4z"/>
	<path id="Path_3309" class="st0" d="M104.4,76.7H103V29.6c0-0.9-0.7-1.6-1.6-1.6H91.3V8.7c0-0.9-0.7-1.6-1.6-1.6h-3.3V1.6
		c0-0.9-0.7-1.6-1.6-1.6c0,0,0,0,0,0H60.3c-0.9,0-1.6,0.7-1.6,1.6v5.6h-3.3c-0.9,0-1.6,0.7-1.6,1.6v30h-8.6c-0.9,0-1.6,0.7-1.6,1.6
		v36.4h-4.2c-0.9,0-1.6,0.7-1.6,1.6c0,0.9,0.7,1.6,1.6,1.6c0,0,0,0,0,0h64.8c0.9,0,1.6-0.7,1.6-1.6C106,77.4,105.3,76.7,104.4,76.7z
		 M61.9,3.1h21.4v4H61.9V3.1z M46.9,41.8h7v34.9h-7V41.8z M57,10.3h31.1v66.4h-7.8V66.4c0-0.9-0.7-1.6-1.6-1.6H66.3
		c-0.9,0-1.6,0.7-1.6,1.6v10.3H57L57,10.3z M67.9,76.7V68h9.4v8.7H67.9z M91.3,76.7V31.2h8.6v45.5H91.3z"/>
</g>
</svg>
