<svg xmlns="http://www.w3.org/2000/svg" width="19" height="11.979" viewBox="0 0 19 11.979">
  <path id="Union_18" data-name="Union 18" d="M21513.025-13763.019v-1.08a1.7,1.7,0,0,0-1.7-1.7h-4.646a1.706,1.706,0,0,0-1.7,1.7v1.08h-1.236v-1.08a2.937,2.937,0,0,1,1.387-2.492.671.671,0,0,0-.637-.466h-2.582a.672.672,0,0,0-.67.67v.567H21500v-.567a1.91,1.91,0,0,1,1.906-1.907h2.582a1.908,1.908,0,0,1,1.8,1.284,2.979,2.979,0,0,1,.387-.026h4.646a3,3,0,0,1,.387.026,1.914,1.914,0,0,1,1.8-1.284h2.576a1.91,1.91,0,0,1,1.91,1.907v.567h-1.236v-.567a.672.672,0,0,0-.674-.67h-2.576a.671.671,0,0,0-.639.467,2.938,2.938,0,0,1,1.385,2.491v1.08Zm-6.965-8.042A2.941,2.941,0,0,1,21509-13774a2.942,2.942,0,0,1,2.941,2.937,2.943,2.943,0,0,1-2.941,2.94A2.943,2.943,0,0,1,21506.061-13771.061Zm6.834.8a1.909,1.909,0,0,1,1.906-1.906,1.914,1.914,0,0,1,1.912,1.906,1.918,1.918,0,0,1-1.912,1.911A1.913,1.913,0,0,1,21512.895-13770.256Zm-11.6,0a1.909,1.909,0,0,1,1.906-1.906,1.909,1.909,0,0,1,1.906,1.906,1.913,1.913,0,0,1-1.906,1.911A1.913,1.913,0,0,1,21501.293-13770.256Z" transform="translate(-21499.5 13774.497)" fill="#757a85" stroke="rgba(0,0,0,0)" stroke-miterlimit="10" stroke-width="1"/>
</svg>
