<?xml version="1.0" encoding="utf-8"?>
<!-- Generator: Adobe Illustrator 24.1.1, SVG Export Plug-In . SVG Version: 6.00 Build 0)  -->
<svg version="1.1" id="Layer_1" xmlns="http://www.w3.org/2000/svg" xmlns:xlink="http://www.w3.org/1999/xlink" x="0px" y="0px"
	 viewBox="0 0 18 18" style="enable-background:new 0 0 18 18;" xml:space="preserve">
<style type="text/css">
	.st0{fill:#FFFFFF;}
</style>
<g id="Group_4358" transform="translate(-69.745 -317.549)">
	<path id="Path_3424" class="st0" d="M70.5,335.5c-0.4,0-0.8-0.4-0.8-0.8c0-0.2,0.1-0.4,0.2-0.6l16.4-16.4c0.3-0.3,0.8-0.3,1.1,0
		c0.3,0.3,0.3,0.8,0,1.1c0,0,0,0,0,0l-16.4,16.4C70.9,335.5,70.7,335.5,70.5,335.5z"/>
	<path id="Path_3425" class="st0" d="M87,335.5c-0.2,0-0.4-0.1-0.6-0.2L70,318.9c-0.3-0.3-0.3-0.8,0-1.1c0.3-0.3,0.8-0.3,1.1,0
		l16.4,16.4c0.3,0.3,0.3,0.8,0,1.1C87.4,335.5,87.2,335.5,87,335.5z"/>
</g>
</svg>
