<svg xmlns="http://www.w3.org/2000/svg" width="18.019" height="18.001" viewBox="0 0 18.019 18.001">
  <g id="Group_5035" data-name="Group 5035" transform="translate(-338.099 -972.884)">
    <path id="Path_3590" data-name="Path 3590" d="M351.383,989.283a2.039,2.039,0,0,0,.374.3,8.941,8.941,0,0,1-6.6,1.085.734.734,0,0,1-.571-.865.744.744,0,0,1,.022-.081.724.724,0,0,1,.183-.308.733.733,0,0,1,.66-.19,7.484,7.484,0,0,0,5.409-.814,2.118,2.118,0,0,0,.52.872Z" fill="#757a85"/>
    <path id="Path_3591" data-name="Path 3591" d="M354.762,977.2a8.893,8.893,0,0,1,1.143,6.655.732.732,0,0,1-.872.56l-.066-.017a.734.734,0,0,1-.527-.843,7.489,7.489,0,0,0-.777-5.322,2.1,2.1,0,0,0,.733-.469A1.982,1.982,0,0,0,354.762,977.2Z" fill="#757a85"/>
    <path id="Path_3592" data-name="Path 3592" d="M349.609,974.067a.718.718,0,0,1-.183.308.735.735,0,0,1-.659.191,7.479,7.479,0,0,0-5.322.777,2.077,2.077,0,0,0-.469-.733,1.968,1.968,0,0,0-.549-.4,8.915,8.915,0,0,1,6.633-1.114.733.733,0,0,1,.579.859A.668.668,0,0,1,349.609,974.067Z" fill="#757a85"/>
    <path id="Path_3593" data-name="Path 3593" d="M339.59,979.579a.736.736,0,0,1,.191.66,7.481,7.481,0,0,0,.776,5.321,2.082,2.082,0,0,0-.732.469,1.958,1.958,0,0,0-.4.55,8.916,8.916,0,0,1-1.114-6.633.732.732,0,0,1,.865-.571.558.558,0,0,1,.08.021.729.729,0,0,1,.33.183Z" fill="#757a85"/>
    <path id="Path_3594" data-name="Path 3594" d="M352.937,990.691a2.933,2.933,0,0,1-1.568-.462,2.8,2.8,0,0,1-.492-.4,2.88,2.88,0,0,1-.733-1.173,2.932,2.932,0,1,1,3.692,1.889A2.983,2.983,0,0,1,352.937,990.691Zm0-4.4a1.465,1.465,0,0,0-1.462,1.469,1.45,1.45,0,0,0,.069.444,1.427,1.427,0,0,0,.352.594,1.4,1.4,0,0,0,.242.2,1.466,1.466,0,1,0,.836-2.7Z" fill="#757a85"/>
    <path id="Path_3595" data-name="Path 3595" d="M341.408,979.125a2.932,2.932,0,1,1,1.348-5.534,2.639,2.639,0,0,1,.733.528,2.819,2.819,0,0,1,.631.952,2.881,2.881,0,0,1-.631,3.2,2.932,2.932,0,0,1-2.081.858Zm0-4.4a1.462,1.462,0,0,0-1.028,2.5h0a1.465,1.465,0,0,0,2.073,0h0a1.466,1.466,0,0,0,.315-1.59,1.4,1.4,0,0,0-.315-.484,1.265,1.265,0,0,0-.345-.249,1.53,1.53,0,0,0-.718-.169Z" fill="#757a85"/>
    <path id="Path_3596" data-name="Path 3596" d="M341.408,990.529a2.931,2.931,0,0,1-2.6-4.28,2.641,2.641,0,0,1,.528-.733,2.81,2.81,0,0,1,.953-.63,2.88,2.88,0,0,1,3.2.63,2.931,2.931,0,0,1-2.074,5.006Zm0-4.4a1.556,1.556,0,0,0-1.048.432,1.291,1.291,0,0,0-.25.345,1.464,1.464,0,0,0,2.323,1.731v0a1.466,1.466,0,0,0,0-2.073h0a1.468,1.468,0,0,0-1.012-.44Z" fill="#757a85"/>
    <path id="Path_3597" data-name="Path 3597" d="M352.8,979.132a2.94,2.94,0,1,1,2.609-1.59,2.645,2.645,0,0,1-.527.732,3.055,3.055,0,0,1-2.082.865Zm0-4.4a1.463,1.463,0,1,0,.557,2.815,1.4,1.4,0,0,0,.477-.315,1.287,1.287,0,0,0,.249-.345,1.464,1.464,0,0,0-1.276-2.162Z" fill="#757a85"/>
  </g>
</svg>
