<svg xmlns="http://www.w3.org/2000/svg" width="14" height="18" viewBox="0 0 14 18">
  <g id="Group_4419" data-name="Group 4419" transform="translate(-998.57 -658.583)">
    <g id="Group_4415" data-name="Group 4415">
      <g id="Group_4412" data-name="Group 4412">
        <g id="Group_4411" data-name="Group 4411">
          <path id="Path_3518" data-name="Path 3518" d="M1007.929,660.083l3.141,3.141v11.859h-11v-15h7.859m.192-1.5h-8.3a1.253,1.253,0,0,0-1.253,1.253V675.33a1.253,1.253,0,0,0,1.253,1.253h11.494a1.253,1.253,0,0,0,1.253-1.253v-12.3a1.035,1.035,0,0,0-.3-.732l-3.414-3.414a1.035,1.035,0,0,0-.732-.3Z" fill="#757a85"/>
        </g>
      </g>
      <g id="Group_4414" data-name="Group 4414">
        <g id="Group_4413" data-name="Group 4413">
          <path id="Path_3519" data-name="Path 3519" d="M1006.468,664.025v-5.273h1.5v3.761l4.44-.036.012,1.5Z" fill="#757a85"/>
        </g>
      </g>
    </g>
    <g id="Group_4416" data-name="Group 4416">
      <path id="Path_3520" data-name="Path 3520" d="M1008.287,667.525h-5.711a.75.75,0,0,1,0-1.5h5.711a.75.75,0,0,1,0,1.5Z" fill="#757a85"/>
    </g>
    <g id="Group_4417" data-name="Group 4417">
      <path id="Path_3521" data-name="Path 3521" d="M1008.342,670.435h-5.711a.75.75,0,0,1,0-1.5h5.711a.75.75,0,0,1,0,1.5Z" fill="#757a85"/>
    </g>
    <g id="Group_4418" data-name="Group 4418">
      <path id="Path_3522" data-name="Path 3522" d="M1008.287,673.344h-5.711a.75.75,0,0,1,0-1.5h5.711a.75.75,0,0,1,0,1.5Z" fill="#757a85"/>
    </g>
  </g>
</svg>
