<svg xmlns="http://www.w3.org/2000/svg" width="18" height="18" viewBox="0 0 18 18">
  <path id="Path_3444" data-name="Path 3444" d="M131.169,308.319a.765.765,0,0,1-.764-.764v-.392l-7.864-.02-.02.412a.765.765,0,0,1-.764.764h-3.529a.765.765,0,0,1-.765-.764v-3.529a.766.766,0,0,1,.765-.765h.392l.02-7.863-.412-.021a.765.765,0,0,1-.765-.763v-3.53a.766.766,0,0,1,.765-.765h3.529a.765.765,0,0,1,.764.765v.392l7.864.02.02-.412a.765.765,0,0,1,.764-.765h3.53a.765.765,0,0,1,.764.765v3.53a.764.764,0,0,1-.764.763h-.393l-.02,7.864.413.02a.765.765,0,0,1,.764.765v3.529a.765.765,0,0,1-.764.764Zm.764-1.549,1.981.021.02-1.981-2-.02Zm-12.941,0,1.981.021.02-1.981-2-.02Zm1.176-3.529,1.589.02a.765.765,0,0,1,.764.765v1.568l7.864.02.02-1.588a.765.765,0,0,1,.764-.765h1.569l.02-7.863-1.589-.021a.764.764,0,0,1-.764-.763v-1.569l-7.864-.02-.02,1.589a.764.764,0,0,1-.764.763h-1.589Zm11.765-9.412,1.981.02.02-1.98-2-.02Zm-12.941,0,1.981.02.02-1.98-2-.02Z" transform="translate(-117.463 -290.319)" fill="#757a85"/>
</svg>
