<svg xmlns="http://www.w3.org/2000/svg" width="26.986" height="26.986" viewBox="0 0 26.986 26.986">
  <path id="Path_3208" data-name="Path 3208" d="M13.479,0A13.493,13.493,0,1,0,26.986,13.493,13.487,13.487,0,0,0,13.479,0Zm8.2,21.7a11.576,11.576,0,0,1-7.218,3.359l-.958.958h-.069l-.958-.958A11.615,11.615,0,0,1,1.9,14.478L.93,13.493l.986-.986A11.642,11.642,0,0,1,12.507,1.916l.972-.972.958.958a11.738,11.738,0,0,1,6.51,2.665h-.708c-1.152-.028-2.526-.292-3.9-.389a18.331,18.331,0,0,0-4.387.167A8.132,8.132,0,0,0,8.273,6,4.5,4.5,0,0,0,6.4,9.523a3.784,3.784,0,0,0,1.027,2.221,9.29,9.29,0,0,0-1.333,2.415A7.11,7.11,0,0,0,6,19a6.835,6.835,0,0,0,4.817,4.164,9.981,9.981,0,0,0,7.843-1.721,8.833,8.833,0,0,0,3.318-4.706.053.053,0,0,0-.042-.069c-.056-.014-.18.056-.361.347a12.266,12.266,0,0,1-3.443,3.137,9.069,9.069,0,0,1-7.121,1.055c-3.026-.888-3.734-4.067-3.54-5.705a7.891,7.891,0,0,1,1.013-3.1.014.014,0,0,1,.014.014,4.385,4.385,0,0,0,3.928-.639,6.344,6.344,0,0,0,2-1.985c.028-.056.1-.18.18-.347v.014l-.333.777L9.884,20.7c0,.014.042.014.042.014l3.554-.625s2.513-13.271,2.5-13.3-.111-.153-.111-.153a15.733,15.733,0,0,1-2.221,3.04c-1.111,1.041-2.832,2.277-4.331,1.888-.069-.014-.125-.042-.194-.056,0-.014.014-.014.014-.028a10.962,10.962,0,0,1,1.985-1.985A24.747,24.747,0,0,1,13.6,7.912a.159.159,0,0,0,.1-.18c-.028-.042-.1-.069-.292-.028a10.394,10.394,0,0,0-2.749,1.152A13.682,13.682,0,0,0,8.232,10.8c-.014.014-.014.028-.028.028a2.2,2.2,0,0,1-.278-1.86,3.408,3.408,0,0,1,1.235-1.68A4.613,4.613,0,0,1,11.6,6.316a13.5,13.5,0,0,1,3.79.1c.847.1,1.763.292,2.443.347a8.645,8.645,0,0,0,1.749-.139,4.076,4.076,0,0,0,2.277-1.194,11.637,11.637,0,0,1,3.193,7.08l.972.986c-1.222,3.706-2.388,6.247-4.345,8.2Z" fill="#203354"/>
</svg>
