<svg xmlns="http://www.w3.org/2000/svg" width="18" height="18" viewBox="0 0 18 18">
  <g id="Group_5033" data-name="Group 5033" transform="translate(-254.894 -973.712)">
    <g id="Group_5031" data-name="Group 5031">
      <path id="Path_3583" data-name="Path 3583" d="M263.894,991.712a9.024,9.024,0,0,1-2.673-.4.693.693,0,0,1,.411-1.323,7.633,7.633,0,0,0,2.262.341l.242,0a.692.692,0,1,1,.042,1.384Zm3.807-.922a.692.692,0,0,1-.318-1.307,7.625,7.625,0,0,0,2.022-1.515.692.692,0,0,1,1,.955,8.978,8.978,0,0,1-2.389,1.79A.68.68,0,0,1,267.7,990.79Zm-9.445-1.283a.689.689,0,0,1-.469-.184,8.985,8.985,0,0,1-1.827-2.359.692.692,0,1,1,1.219-.656,7.643,7.643,0,0,0,1.547,2,.692.692,0,0,1-.47,1.2ZM271.789,986a.683.683,0,0,1-.216-.035.692.692,0,0,1-.442-.873,7.62,7.62,0,0,0,.378-2.378v-.117a.693.693,0,0,1,1.385-.029v.153a8.988,8.988,0,0,1-.448,2.8A.691.691,0,0,1,271.789,986ZM255.6,983.8a.692.692,0,0,1-.691-.659c-.007-.142-.01-.284-.01-.428a8.986,8.986,0,0,1,.362-2.536.692.692,0,1,1,1.329.389,7.607,7.607,0,0,0-.307,2.147c0,.121,0,.242.009.362a.693.693,0,0,1-.658.725Zm15.744-4.084a.692.692,0,0,1-.62-.385,7.6,7.6,0,0,0-1.483-2.045.693.693,0,0,1,.972-.987,9.026,9.026,0,0,1,1.751,2.417.692.692,0,0,1-.62,1ZM257.7,977.864a.692.692,0,0,1-.516-1.154,9.013,9.013,0,0,1,2.331-1.865.693.693,0,0,1,.674,1.21,7.614,7.614,0,0,0-1.972,1.578A.693.693,0,0,1,257.7,977.864Zm8.911-2.313a.693.693,0,0,1-.227-.038,7.618,7.618,0,0,0-2.976-.4.692.692,0,0,1-.086-1.382,9.084,9.084,0,0,1,3.515.474.693.693,0,0,1-.226,1.347Z" fill="#d3d5db"/>
    </g>
    <g id="Group_5032" data-name="Group 5032">
      <path id="Path_3584" data-name="Path 3584" d="M261,986.812a1.231,1.231,0,0,1-1.206-1.151v-5.142a1.235,1.235,0,0,1,1.222-1.177h5.77a1.216,1.216,0,0,1,1.207,1.151v5.142a1.237,1.237,0,0,1-1.226,1.177Zm.014-6.579a.332.332,0,0,0-.332.312l0,5.09a.33.33,0,0,0,.324.287h5.728a.34.34,0,0,0,.367-.312v-5.09a.32.32,0,0,0-.328-.286Z" fill="#737b88"/>
      <path id="Path_3585" data-name="Path 3585" d="M265.518,980.965a.446.446,0,0,1-.445-.446v-1.462a.445.445,0,0,1,.89,0v1.462A.446.446,0,0,1,265.518,980.965Z" fill="#737b88"/>
      <path id="Path_3586" data-name="Path 3586" d="M262.269,980.965a.446.446,0,0,1-.445-.446v-1.462a.445.445,0,1,1,.89,0v1.462A.446.446,0,0,1,262.269,980.965Z" fill="#737b88"/>
      <path id="Path_3587" data-name="Path 3587" d="M260.239,982.426a.445.445,0,0,1,0-.89h7.309a.445.445,0,1,1,0,.89Z" fill="#737b88"/>
    </g>
  </g>
</svg>
