<?xml version="1.0" encoding="utf-8"?>
<!-- Generator: Adobe Illustrator 26.3.1, SVG Export Plug-In . SVG Version: 6.00 Build 0)  -->
<svg version="1.1" id="Layer_1" xmlns="http://www.w3.org/2000/svg" xmlns:xlink="http://www.w3.org/1999/xlink" x="0px" y="0px"
	 viewBox="0 0 18 18" style="enable-background:new 0 0 18 18;" xml:space="preserve">
<style type="text/css">
	.st0{fill:#FF8A01;}
</style>
<g id="Group_4347" transform="translate(-160.057 -147.331)">
	<path id="Path_3398" class="st0" d="M162.5,165.3c-1.3,0-2.4-1.1-2.5-2.4v-11.6c0.1-1.3,1.2-2.4,2.5-2.4h13c1.3,0,2.4,1.1,2.5,2.4
		v11.6c-0.1,1.4-1.2,2.4-2.5,2.4H162.5z M162.6,150.5c-0.5,0-0.9,0.4-1,0.9v11.5c0.1,0.5,0.5,0.9,1,0.9h12.9c0.5,0,1-0.4,1.1-0.9
		v-11.5c0-0.5-0.5-0.9-1-0.9L162.6,150.5z"/>
	<path id="Path_3399" class="st0" d="M172.7,152.2c-0.4,0-0.8-0.3-0.8-0.8v-3.3c0-0.4,0.3-0.8,0.8-0.8c0.4,0,0.8,0.3,0.8,0.8v3.3
		C173.5,151.8,173.1,152.2,172.7,152.2z"/>
	<path id="Path_3400" class="st0" d="M165.4,152.2c-0.4,0-0.8-0.3-0.8-0.8v-3.3c0-0.4,0.3-0.8,0.8-0.8c0.4,0,0.8,0.3,0.8,0.8v3.3
		C166.2,151.8,165.8,152.2,165.4,152.2z"/>
	<path id="Path_3401" class="st0" d="M160.8,155.5c-0.4,0-0.8-0.3-0.8-0.7s0.3-0.8,0.7-0.8c0,0,0,0,0.1,0h16.4
		c0.4,0,0.8,0.3,0.8,0.7s-0.3,0.8-0.7,0.8c0,0,0,0-0.1,0H160.8z"/>
</g>
</svg>
