<svg xmlns="http://www.w3.org/2000/svg" width="17.747" height="18" viewBox="0 0 17.747 18">
  <g id="Group_5041" data-name="Group 5041" transform="translate(-106.294 -1025.131)">
    <g id="Path_3236" data-name="Path 3236">
      <path id="Path_3516" data-name="Path 3516" d="M123.285,1043.131h0a.762.762,0,0,1-.761-.762V1041.1a3.3,3.3,0,0,0-3.3-3.3h-8.113a3.3,3.3,0,0,0-3.295,3.3v1.268a.762.762,0,0,1-.761.762h0a.762.762,0,0,1-.761-.762V1041.1a4.817,4.817,0,0,1,4.817-4.817h8.113a4.817,4.817,0,0,1,4.817,4.817h0v1.268A.762.762,0,0,1,123.285,1043.131Z" fill="#757a85"/>
    </g>
    <g id="Path_3237" data-name="Path 3237">
      <path id="Path_3517" data-name="Path 3517" d="M115.171,1034.763a4.816,4.816,0,1,1,4.818-4.816A4.816,4.816,0,0,1,115.171,1034.763Zm0-8.112a3.3,3.3,0,1,0,3.3,3.3h0a3.3,3.3,0,0,0-3.3-3.3h0Z" fill="#757a85"/>
    </g>
    <circle id="Ellipse_368" data-name="Ellipse 368" cx="1.374" cy="1.374" r="1.374" transform="translate(113.793 1037.025)" fill="#757a85"/>
    <g id="Group_5040" data-name="Group 5040">
      <path id="Path_3603" data-name="Path 3603" d="M114.613,1039.187l-.814,3.944h2.739l-.814-3.944Z" fill="#757a85"/>
    </g>
  </g>
</svg>
