<svg xmlns="http://www.w3.org/2000/svg" xmlns:xlink="http://www.w3.org/1999/xlink" width="470" height="185.584" viewBox="0 0 470 185.584">
  <defs>
    <filter id="Rectangle_1947" x="0" y="77.584" width="470" height="52" filterUnits="userSpaceOnUse">
      <feOffset dy="1" input="SourceAlpha"/>
      <feGaussianBlur stdDeviation="1" result="blur"/>
      <feFlood flood-opacity="0.071"/>
      <feComposite operator="in" in2="blur"/>
      <feComposite in="SourceGraphic"/>
    </filter>
    <filter id="Rectangle_1947-2" x="0" y="133.584" width="470" height="52" filterUnits="userSpaceOnUse">
      <feOffset dy="1" input="SourceAlpha"/>
      <feGaussianBlur stdDeviation="1" result="blur-2"/>
      <feFlood flood-opacity="0.071"/>
      <feComposite operator="in" in2="blur-2"/>
      <feComposite in="SourceGraphic"/>
    </filter>
  </defs>
  <g id="Group_5639" data-name="Group 5639" transform="translate(-830 -512.416)">
    <g id="Group_5615" data-name="Group 5615">
      <g transform="matrix(1, 0, 0, 1, 830, 512.42)" filter="url(#Rectangle_1947)">
        <rect id="Rectangle_1947-3" data-name="Rectangle 1947" width="464" height="46" rx="4" transform="translate(3 79.58)" fill="#fff"/>
      </g>
      <rect id="Rectangle_3628" data-name="Rectangle 3628" width="288" height="16" rx="4" transform="translate(889 607)" fill="#eff1f3"/>
      <rect id="Rectangle_3629" data-name="Rectangle 3629" width="50" height="16" rx="4" transform="translate(1227 607)" fill="#eff1f3"/>
      <rect id="Rectangle_3630" data-name="Rectangle 3630" width="16" height="16" rx="4" transform="translate(853 607)" fill="#0361cf" opacity="0.3"/>
    </g>
    <g id="Group_5616" data-name="Group 5616" transform="translate(0 56)">
      <g transform="matrix(1, 0, 0, 1, 830, 456.42)" filter="url(#Rectangle_1947-2)">
        <rect id="Rectangle_1947-4" data-name="Rectangle 1947" width="464" height="46" rx="4" transform="translate(3 135.58)" fill="#fff"/>
      </g>
      <rect id="Rectangle_3628-2" data-name="Rectangle 3628" width="288" height="16" rx="4" transform="translate(889 607)" fill="#eff1f3"/>
      <rect id="Rectangle_3629-2" data-name="Rectangle 3629" width="50" height="16" rx="4" transform="translate(1227 607)" fill="#eff1f3"/>
      <rect id="Rectangle_3630-2" data-name="Rectangle 3630" width="16" height="16" rx="4" transform="translate(853 607)" fill="#0361cf" opacity="0.3"/>
    </g>
    <g id="swipe" transform="translate(993.47 512.416)">
      <g id="Page-1_65_" transform="translate(47.53 0)">
        <g id="_x30_66---Swipe" transform="translate(0 0)">
          <path id="Shape_298_" d="M94.24,99.143c-.033-.009-.067-.01-.1-.019.017-.469.045-.959.092-1.484.352-3.892-.718-5.859-2.658-9.43L84.411,75.03a4,4,0,0,0-7.065.065,3.96,3.96,0,0,0-6.39,1.517,3.939,3.939,0,0,0-5.439,1.35l-3.269-6.014a7.863,7.863,0,0,0,1.283-4.288,8,8,0,1,0-8.384,7.981l6.568,12.1-.838,1.011a5.975,5.975,0,0,0-.655,6.7l1.727,3.176c1.029,1.894,2.585,4.758,5.7,5.677a28.935,28.935,0,0,0,4.651.983,8.564,8.564,0,0,1,4.531,2.735,2.993,2.993,0,0,0,3.93,4.273l14.061-7.636a3,3,0,0,0-.582-5.513v0ZM49.531,67.66a6,6,0,0,1,12,0,5.935,5.935,0,0,1-.427,2.182l-1.973-3.635a4.1,4.1,0,0,0-5.32-1.854,3.966,3.966,0,0,0-2.08,2.376,4.024,4.024,0,0,0,.29,3.149l1.936,3.564A6,6,0,0,1,49.531,67.66ZM72.556,103.3a26.954,26.954,0,0,1-4.344-.919c-2.316-.685-3.581-3.014-4.505-4.714L61.98,94.49a3.983,3.983,0,0,1,.436-4.464l.328-.4L64.9,93.6a1,1,0,0,0,1.758-.955l-2.837-5.219c-.011-.024-.024-.045-.037-.068L53.775,68.923a2,2,0,0,1,.893-2.763,2.126,2.126,0,0,1,2.7,1L66.358,83.7l.954,1.754A1,1,0,0,0,69.07,84.5l-1.907-3.51a2,2,0,0,1,3.514-1.91l.478.878,1.91,3.514a1,1,0,0,0,1.758-.955L72.912,79a2,2,0,1,1,3.519-1.908l2.387,4.392a1,1,0,0,0,1.758-.955L79.144,77.9a2,2,0,0,1,3.514-1.91l7.164,13.18c1.867,3.436,2.72,5,2.423,8.3-.059.658-.088,1.265-.1,1.847-.059.027-.121.044-.179.076l-13.573,7.376a10.5,10.5,0,0,0-5.837-3.462Zm21.311-.4-14.058,7.64a1,1,0,1,1-.955-1.757l14.058-7.641a.983.983,0,0,1,.475-.122,1,1,0,0,1,.48,1.879h0Z" transform="translate(-47.53 -52.66)" fill="#929aa8"/>
          <path id="Shape_297_" d="M185.065,3a1,1,0,0,0-1,1v6a1,1,0,0,0,1,1h6a1,1,0,1,0,0-2h-3.7c1.3-1.78,5.188-7,15.7-7,7.334,0,10.091,3.458,10.2,3.6a1,1,0,1,0,1.6-1.2c-.135-.179-3.4-4.4-11.8-4.4-10.784,0-15.277,5.107-17,7.389V4a1,1,0,0,0-1-1Z" transform="translate(-168.065 0)" fill="#929aa8"/>
        </g>
      </g>
    </g>
  </g>
</svg>
