<svg class="dropbox-icon" version="1.1" id="Layer_1"
    xmlns="http://www.w3.org/2000/svg"
    xmlns:xlink="http://www.w3.org/1999/xlink" x="0px" y="0px" viewBox="0 0 18 18" xml:space="preserve">
    <g id="Dropbox">
        <g id="dropbox-2" transform="translate(0 -9.413)">
            <path id="Path_38039" fill="#757A85" d="M8.3,19.6l-4.6-3c-0.1-0.1-0.3-0.1-0.5,0l-3.1,2.5c-0.2,0.1-0.2,0.4-0.1,0.6c0,0,0.1,0.1,0.1,0.1l4.6,3c0.1,0.1,0.3,0.1,0.5,0l3.1-2.5c0.2-0.1,0.2-0.4,0.1-0.6C8.4,19.7,8.4,19.7,8.3,19.6z"></path>
            <path id="Path_38040" fill="#757A85" d="M9.6,20.3l3.1,2.5c0.1,0.1,0.3,0.1,0.5,0l4.6-3c0.2-0.1,0.2-0.4,0.1-0.6c0,0-0.1-0.1-0.1-0.1l-3.1-2.5c-0.1-0.1-0.3-0.1-0.5,0l-4.6,3C9.5,19.8,9.4,20,9.6,20.3C9.6,20.3,9.6,20.3,9.6,20.3z"></path>
            <path id="Path_38041" fill="#757A85" d="M8.4,12.5L5.3,10c-0.1-0.1-0.3-0.1-0.5,0l-4.6,3c-0.2,0.1-0.2,0.4-0.1,0.6c0,0,0.1,0.1,0.1,0.1l3.1,2.5c0.1,0.1,0.3,0.1,0.5,0l4.6-3C8.5,13,8.6,12.8,8.4,12.5C8.4,12.6,8.4,12.5,8.4,12.5z"></path>
            <path id="Path_38042" fill="#757A85" d="M17.8,12.9l-4.6-3c-0.1-0.1-0.3-0.1-0.5,0l-3.1,2.5c-0.2,0.1-0.2,0.4-0.1,0.6c0,0,0.1,0.1,0.1,0.1l4.6,3c0.1,0.1,0.3,0.1,0.5,0l3.1-2.5C18,13.5,18.1,13.2,17.8,12.9C17.9,13,17.8,13,17.8,12.9z"></path>
            <path id="Path_38043" fill="#757A85" d="M8.8,20.8l-3.5,2.8c-0.1,0.1-0.3,0.1-0.4,0L4,23c-0.2-0.1-0.4-0.1-0.5,0.1c0,0.1-0.1,0.1-0.1,0.2v0.3c0,0.1,0.1,0.3,0.2,0.3l5.2,3.1c0.1,0.1,0.3,0.1,0.4,0l5.2-3.1c0.1-0.1,0.2-0.2,0.2-0.3v-0.3c0-0.2-0.2-0.4-0.4-0.4c-0.1,0-0.1,0-0.2,0.1l-0.8,0.5c-0.1,0.1-0.3,0.1-0.4,0l-3.5-2.8C9.1,20.7,8.9,20.7,8.8,20.8z"></path>
        </g>
    </g>
</svg>