<?xml version="1.0" encoding="utf-8"?>
<!-- Generator: Adobe Illustrator 26.0.3, SVG Export Plug-In . SVG Version: 6.00 Build 0)  -->
<svg version="1.1" id="Layer_1" xmlns="http://www.w3.org/2000/svg" xmlns:xlink="http://www.w3.org/1999/xlink" x="0px" y="0px"
	 viewBox="0 0 220 180" style="enable-background:new 0 0 220 180;" xml:space="preserve">
<style type="text/css">
	.st0{fill:#548DBF;}
	.st1{fill:#FFFFFF;}
	.st2{fill:#5FB6D9;}
</style>
<g id="Group_4041" transform="translate(444 15817.999)">
	<path id="Path_3292" class="st0" d="M-347.2-15801.7v-7.8c-0.1-4.8-4-8.6-8.8-8.5h-79.2c-4.8-0.1-8.7,3.8-8.8,8.5v50.3h220v-28.3
		c-0.1-4.8-4-8.6-8.8-8.5h-108.5C-344.5-15796-347.2-15798.5-347.2-15801.7z"/>
	<path id="Path_3297" class="st1" d="M-232-15758.2v-25.1c0-3-2.1-4.9-5.2-4.9h-193.5c-3.2,0-5.3,2-5.3,4.9v25.1H-232z"/>
	<path id="Path_3293" class="st2" d="M-235.7-15638h-196.5c-6.4,0.1-11.6-5-11.7-11.4v-111.8h97.1c2.5,0,4.8-1,6.5-2.8l10.8-11.5
		c1.7-1.8,4-2.8,6.5-2.8h99.1v128.9C-224.1-15643-229.4-15637.9-235.7-15638z"/>
</g>
</svg>
