<?xml version="1.0" encoding="utf-8"?>
<!-- Generator: Adobe Illustrator 26.0.3, SVG Export Plug-In . SVG Version: 6.00 Build 0)  -->
<svg version="1.1" id="Layer_1" xmlns="http://www.w3.org/2000/svg" xmlns:xlink="http://www.w3.org/1999/xlink" x="0px" y="0px"
	 viewBox="0 0 220 180" style="enable-background:new 0 0 220 180;" xml:space="preserve">
<style type="text/css">
	.st0{fill:#548DBF;}
	.st1{fill:#5FB6D9;}
</style>
<g id="Group_4069" transform="translate(705 15817.999)">
	<g id="Group_4037" transform="translate(-705 -15817.999)">
		<path id="Path_3292" class="st0" d="M96.8,16.3V8.5c-0.1-4.8-4-8.6-8.8-8.5H8.8C4-0.1,0.1,3.8,0,8.5v50.3h220V30.5
			c-0.1-4.8-4-8.6-8.8-8.5H102.7C99.5,22,96.8,19.5,96.8,16.3z"/>
		<path id="Path_3293" class="st1" d="M208.3,180H11.7c-6.4,0.1-11.6-5-11.7-11.4V56.8h97.1c2.5,0,4.8-1,6.5-2.8l10.8-11.5
			c1.7-1.8,4-2.8,6.5-2.8H220v128.9C219.9,175,214.6,180.1,208.3,180z"/>
	</g>
</g>
</svg>
