<svg xmlns="http://www.w3.org/2000/svg" xmlns:xlink="http://www.w3.org/1999/xlink" id="Layer_1" data-name="Layer 1" width="261.9" height="40.13" viewBox="0 0 261.9 40.13"><defs><linearGradient id="linear-gradient" x1="-583.49" y1="-782.66" x2="-583.49" y2="-781.02" gradientTransform="translate(2461.45 3194.75) scale(4.07)" gradientUnits="userSpaceOnUse"><stop offset="0" stop-color="#445ea7"></stop><stop offset="0.25" stop-color="#4f7cbc"></stop><stop offset="1" stop-color="#89ddef"></stop></linearGradient><linearGradient id="linear-gradient-2" x1="-627.68" y1="-1073.15" x2="-627.45" y2="-1073.83" gradientTransform="translate(25114.51 42954.01) scale(39.99 39.99)" gradientUnits="userSpaceOnUse"><stop offset="0" stop-color="#445ea7"></stop><stop offset="0.22" stop-color="#4f7cbc"></stop><stop offset="1" stop-color="#5faedf"></stop></linearGradient><linearGradient id="linear-gradient-3" x1="-622.14" y1="-1054.85" x2="-622" y2="-1054.2" gradientTransform="translate(16030.67 26307.97) scale(25.73 24.93)" gradientUnits="userSpaceOnUse"><stop offset="0" stop-color="#445ea7"></stop><stop offset="0.22" stop-color="#4f7cbc"></stop><stop offset="1" stop-color="#5faedf"></stop></linearGradient><linearGradient id="linear-gradient-4" x1="-619.14" y1="-1053.91" x2="-619.29" y2="-1053.12" gradientTransform="translate(13547.03 25820.33) scale(21.83 24.49)" gradientUnits="userSpaceOnUse"><stop offset="0" stop-color="#364d7f"></stop><stop offset="1" stop-color="#364d7f" stop-opacity="0"></stop></linearGradient><linearGradient id="linear-gradient-5" x1="-615.6" y1="-954.02" x2="-614.73" y2="-954.02" gradientTransform="translate(11056.51 8042.22) scale(17.91 8.42)" xlink:href="#linear-gradient"></linearGradient></defs><g id="Group_41081" data-name="Group 41081"><g id="Group_41080" data-name="Group 41080"><circle id="Ellipse_14" data-name="Ellipse 14" cx="86.63" cy="12.45" r="2" fill="url(#linear-gradient)"></circle><path id="Path_38001" data-name="Path 38001" d="M66.63,17.28v1.4a7.4,7.4,0,0,0-4.2-1.7c-4.3,0-7.2,3.2-7.2,8a9.37,9.37,0,0,0,.7,3.7,7.82,7.82,0,0,0,1.7,2.6,7,7,0,0,0,4.8,1.8,6.55,6.55,0,0,0,4.2-1.5v1.2h3.8V17.28ZM63,29.58c-2.6,0-4.1-1.4-4.1-4.4s1.5-4.6,4.1-4.6c1.8,0,3.6,1.5,3.6,4.5s-1.8,4.5-3.6,4.5Z" transform="translate(-0.6 0.07)" fill="#263138"></path><path id="Path_38002" data-name="Path 38002" d="M80.93,20.38c-3.2,0-4.2,1.7-4.2,4.2v8.2h-3.8V17.28h3.8v1.2a5.35,5.35,0,0,1,4.2-1.5,3.39,3.39,0,0,1,2.7,1v3.3A4.6,4.6,0,0,0,80.93,20.38Z" transform="translate(-0.6 0.07)" fill="#263138"></path><path id="Path_38003" data-name="Path 38003" d="M85.33,17.28h3.8v15.5h-3.8Z" transform="translate(-0.6 0.07)" fill="#263138"></path><path id="Path_38004" data-name="Path 38004" d="M98.23,17a5.89,5.89,0,0,1,4.2,1.7v-1.4h3.8v15.5h-3.8v-1.2a7.17,7.17,0,0,1-4.2,1.5c-4.3,0-7.2-3.2-7.2-8S93.93,17,98.23,17Zm.7,12.6c1.8,0,3.6-1.5,3.6-4.5s-1.8-4.5-3.6-4.5c-2.6,0-4.1,1.7-4.1,4.6S96.23,29.58,98.93,29.58Z" transform="translate(-0.6 0.07)" fill="#263138"></path><path id="Path_38005" data-name="Path 38005" d="M57.13,33.08h-6.7c-4.3,0-5.8-2-5.8-5.6V12.28l3.8-2.2V28a1.79,1.79,0,0,0,1.8,1.8h4.4a10.15,10.15,0,0,0,1.9,2.7h0A1.7,1.7,0,0,0,57.13,33.08Z" transform="translate(-0.6 0.07)" fill="#263138"></path><path id="Path_38006" data-name="Path 38006" d="M119.53,20.68v-3.3h-5.3v-7.3h0l-3.8,2.2v5.1h-2.3v3.3h2.3v6.9c0,3.6,1.5,5.6,5.8,5.6h3.2v-3.4h-2.3c-2.3,0-3-.9-3-2.3v-6.9Z" transform="translate(-0.6 0.07)" fill="#263138"></path></g><g id="Group_39042" data-name="Group 39042"><path id="Path_38007" data-name="Path 38007" d="M44.3,4.08h0a20.5,20.5,0,0,0-10.5-2.9H32.4a16.45,16.45,0,0,0-3.2.5h-.3A20.05,20.05,0,1,0,39,28.18a19.67,19.67,0,0,0,1.1-13.1.37.37,0,0,0-.1-.3A22.54,22.54,0,0,0,36.7,8h0a7.37,7.37,0,0,1,1.4.4h.1c.1,0,.1,0,.2.1h.1c.1,0,.2.1.3.1s.1,0,.2.1a11.94,11.94,0,0,1,1.6.8.85.85,0,0,0,.7,0l2-1.2,3.3-2a.48.48,0,0,0,.2-.6l-.1-.1C45.8,5.08,45.1,4.48,44.3,4.08ZM26.1,32.18a15.87,15.87,0,0,1-2,.7,13.31,13.31,0,0,1-6.9-25.7,15.52,15.52,0,0,1,2.1-.4,17.75,17.75,0,0,0-4.5,6.3h0a13.67,13.67,0,0,0-.8,8v.2c0,.1,0,.1.1.2v.4c0,.1,0,.1.1.2v.2a14.14,14.14,0,0,0,4.7,6.6h0a13.16,13.16,0,0,0,8.1,2.7,7,7,0,0,1-.9.6Zm6.7-10.6A6.57,6.57,0,0,1,23.7,24c-.2-.1-.4-.3-.6-.4a6.35,6.35,0,0,1-2.3-3.1V20h0v-.2h0v-.3a6.91,6.91,0,0,1,.4-4h0a21.16,21.16,0,0,1,1.1-2.1,13.43,13.43,0,0,1,3.2-3.1,15.09,15.09,0,0,1,2.8-1.5,13,13,0,0,1,5.4,7.6,8.27,8.27,0,0,1-.9,5.2Z" transform="translate(-0.6 0.07)" fill="#5faedf"></path><g id="Group_39041" data-name="Group 39041"><path id="Path_38008" data-name="Path 38008" d="M25.8,39.28a20,20,0,1,1,3-37.5c-.2,0-.4.1-.6.1a22.46,22.46,0,0,0-9,4.8,15.52,15.52,0,0,0-2.1.4,13.34,13.34,0,1,0,6.8,25.8h.2a11.76,11.76,0,0,0,2-.7c.4-.2.7-.4,1.1-.6a13.32,13.32,0,0,0,13.2-13.5,12.57,12.57,0,0,0-.5-3.3A20,20,0,0,1,25.8,39.28Z" transform="translate(-0.6 0.07)" fill="url(#linear-gradient-2)"></path><path id="Path_38009" data-name="Path 38009" d="M34.5,25.38a12.86,12.86,0,0,1-1.9.4,11.45,11.45,0,0,1-3.2.1,12.4,12.4,0,0,1-4.3-1.1,8.17,8.17,0,0,1-2-1.2c.2.1.4.3.6.4a6.66,6.66,0,0,0,9.1-2.4,7,7,0,0,0,.7-5.1,13,13,0,0,0-5.4-7.6c-.3-.2-.5-.3-.8-.5a13.79,13.79,0,0,0-4.8-1.7,12.1,12.1,0,0,0-1.9-.1,4.87,4.87,0,0,0-1.2.1,20.72,20.72,0,0,1,9-4.8,1.27,1.27,0,0,1,.6-.1,19.93,19.93,0,0,1,11.1,13.1,13.16,13.16,0,0,1-.5,8.3c-.1.1-.2.1-.3.2A16.84,16.84,0,0,1,34.5,25.38Z" transform="translate(-0.6 0.07)" fill="#5faedf"></path><path id="Path_38010" data-name="Path 38010" d="M30.5,31.08a13.19,13.19,0,0,1-11.4-2.2h0a13.86,13.86,0,0,1-4.7-6.5v-.2c0-.1,0-.1-.1-.2v-.4c0-.1,0-.1-.1-.2v-.2a12.91,12.91,0,0,1,.8-8h0a16.6,16.6,0,0,1,4.5-6.3c.4,0,.8-.1,1.2-.1a11.48,11.48,0,0,1,1.9.1,12,12,0,0,1,4.8,1.7c.3.2.5.3.8.5a15.09,15.09,0,0,0-2.8,1.5,13.43,13.43,0,0,0-3.2,3.1,7,7,0,0,0-1.1,2.1h0a6.91,6.91,0,0,0-.4,4v.3h0v.2h0v.5a6.35,6.35,0,0,0,2.3,3.1,8.17,8.17,0,0,0,2,1.2,13,13,0,0,0,4.3,1.1,17.13,17.13,0,0,0,3.2-.1,12.86,12.86,0,0,0,1.9-.4,16.52,16.52,0,0,0,4.7-2.1c.1-.1.2-.1.3-.2A13,13,0,0,1,30.5,31.08Z" transform="translate(-0.6 0.07)" fill="url(#linear-gradient-3)"></path><path id="Path_38011" data-name="Path 38011" d="M25.8,39.28a19.88,19.88,0,0,0,14.1-24.5h0a13.3,13.3,0,0,1-9.4,16.3,18.81,18.81,0,0,1-3.3.5c-.4.2-.7.4-1.1.6a15.87,15.87,0,0,1-2,.7,11.83,11.83,0,0,1-5.3.3" transform="translate(-0.6 0.07)" fill="url(#linear-gradient-4)"></path><path id="Path_38012" data-name="Path 38012" d="M46.5,5.68a.37.37,0,0,1,0,.6l-.1.1-3.3,2-2,1.2a.85.85,0,0,1-.7,0c-.5-.3-1-.5-1.6-.8-.1,0-.1,0-.2-.1s-.2-.1-.3-.1h-.1c-.1,0-.1-.1-.2-.1h-.1c-.5-.1-.9-.3-1.4-.4a19.62,19.62,0,0,0-7.9-6.3h.3c1.1-.2,2.2-.4,3.2-.5h1.4A20.24,20.24,0,0,1,44,4.18h0A7.55,7.55,0,0,1,46.5,5.68Z" transform="translate(-0.6 0.07)" fill="url(#linear-gradient-5)"></path></g></g></g><g style="isolation:isolate"><path d="M160.9,29v-9.3h-.1L157,29h-1.5l-3.8-9.3h-.1V29h-1.8V16.28h2.3l4.1,10.1h.1l4.1-10.1h2.3V29Z" transform="translate(-0.6 0.07)" fill="#263138"></path><path d="M164.2,26.38c0-1.6,1.2-2.6,3.4-2.7l2.5-.1v-.7c0-1-.7-1.6-1.9-1.6a1.81,1.81,0,0,0-2,1.4h-1.8c.1-1.7,1.5-2.9,3.8-2.9s3.7,1.2,3.7,3V29h-1.8v-1.5h0a3.32,3.32,0,0,1-2.9,1.7A2.79,2.79,0,0,1,164.2,26.38Zm5.9-.9v-.7l-2.3.1c-1.1.1-1.8.6-1.8,1.4s.7,1.3,1.7,1.3A2.14,2.14,0,0,0,170.1,25.48Z" transform="translate(-0.6 0.07)" fill="#263138"></path><path d="M173.9,19.78h1.8v1.6h0a2.15,2.15,0,0,1,2.2-1.7,1.48,1.48,0,0,1,.7.1v1.8a2,2,0,0,0-.9-.1,1.92,1.92,0,0,0-2,2.1V29h-1.9v-9.2Z" transform="translate(-0.6 0.07)" fill="#263138"></path><path d="M185.5,19.78h2.2l-3.8,4,4,5.3h-2.2L182.6,25l-.8.8V29h-1.9V16.28h1.9v7.4h0Z" transform="translate(-0.6 0.07)" fill="#263138"></path><path d="M196.3,26.28a3.79,3.79,0,0,1-4,2.9c-2.7,0-4.4-1.8-4.4-4.8s1.7-4.8,4.3-4.8,4.2,1.8,4.2,4.6v.7h-6.5V25a2.47,2.47,0,0,0,2.5,2.7,1.93,1.93,0,0,0,2.1-1.4Zm-6.4-2.8h4.6a2.23,2.23,0,0,0-2.3-2.4A2.29,2.29,0,0,0,189.9,23.48Z" transform="translate(-0.6 0.07)" fill="#263138"></path><path d="M200.4,17.58v2.2h1.8v1.5h-1.8v5.1c0,.8.4,1.2,1.1,1.2h.6V29a3.11,3.11,0,0,1-1.1.1c-1.9,0-2.6-.7-2.6-2.5v-5.3h-1.3v-1.5h1.3v-2.2Z" transform="translate(-0.6 0.07)" fill="#263138"></path><path d="M203.6,17.18a1.1,1.1,0,1,1,1.1,1.1A1.11,1.11,0,0,1,203.6,17.18Zm.1,2.6h1.9V29h-1.9Z" transform="translate(-0.6 0.07)" fill="#263138"></path><path d="M207.6,19.78h1.8v1.5h0a2.94,2.94,0,0,1,2.9-1.7c2,0,3.2,1.3,3.2,3.4v6h-1.9v-5.6c0-1.4-.7-2.2-2-2.2a2.16,2.16,0,0,0-2.2,2.4V29h-1.8Z" transform="translate(-0.6 0.07)" fill="#263138"></path><path d="M217.3,29.68h1.9a2.18,2.18,0,0,0,2.2,1.3c1.5,0,2.4-.8,2.4-2.1v-1.5h0a3.21,3.21,0,0,1-2.9,1.7c-2.3,0-3.8-1.8-3.8-4.7s1.5-4.7,3.9-4.7a3.21,3.21,0,0,1,2.9,1.7h0v-1.6h1.8v9.1c0,2.2-1.7,3.6-4.3,3.6C219.2,32.48,217.5,31.28,217.3,29.68Zm6.5-5.4c0-1.9-1-3.1-2.5-3.1s-2.4,1.2-2.4,3.1.9,3.1,2.4,3.1S223.8,26.28,223.8,24.28Z" transform="translate(-0.6 0.07)" fill="#263138"></path><path d="M239.9,29v-5.6h-6.5V29h-2V16.28h2v5.4h6.5v-5.4h2V29Z" transform="translate(-0.6 0.07)" fill="#263138"></path><path d="M251.9,29h-1.8v-1.6h0a2.94,2.94,0,0,1-2.9,1.7c-2,0-3.2-1.3-3.2-3.4v-6h1.9v5.6c0,1.4.7,2.2,2,2.2a2.11,2.11,0,0,0,2.2-2.4v-5.4H252V29Z" transform="translate(-0.6 0.07)" fill="#263138"></path><path d="M255.7,27.38h0V29h-1.8V16.28h1.9v5h0a3.13,3.13,0,0,1,2.9-1.7c2.3,0,3.8,1.8,3.8,4.8s-1.5,4.8-3.9,4.8A3.34,3.34,0,0,1,255.7,27.38Zm0-3c0,1.9,1,3.2,2.5,3.2s2.4-1.2,2.4-3.2-.9-3.2-2.4-3.2S255.7,22.48,255.7,24.38Z" transform="translate(-0.6 0.07)" fill="#263138"></path></g><rect id="Rectangle_6757" data-name="Rectangle 6757" x="133" y="13.04" width="2" height="18" fill="#dfe6ea" opacity="0.5" style="isolation:isolate"></rect></svg>