<svg id="Group_39060" data-name="Group 39060" xmlns="http://www.w3.org/2000/svg" xmlns:xlink="http://www.w3.org/1999/xlink" width="1371.224" height="1190" viewBox="0 0 1371.224 1190">
  <defs>
    <linearGradient id="linear-gradient" x1="0.356" y1="0.947" x2="0.577" y2="0.263" gradientUnits="objectBoundingBox">
      <stop offset="0" stop-color="#445ea7"/>
      <stop offset="0.222" stop-color="#4f7cbc"/>
      <stop offset="0.997" stop-color="#5faedf"/>
    </linearGradient>
    <linearGradient id="linear-gradient-2" x1="0.366" y1="-0.021" x2="0.507" y2="0.626" gradientUnits="objectBoundingBox">
      <stop offset="0" stop-color="#445ea7"/>
      <stop offset="0.222" stop-color="#4f7cbc"/>
      <stop offset="0.998" stop-color="#5faedf"/>
    </linearGradient>
    <linearGradient id="linear-gradient-3" x1="0.6" y1="-0.018" x2="0.452" y2="0.77" gradientUnits="objectBoundingBox">
      <stop offset="0" stop-color="#364d7f"/>
      <stop offset="0.999" stop-color="#364d7f" stop-opacity="0"/>
    </linearGradient>
    <linearGradient id="linear-gradient-4" x1="0.141" y1="0.5" x2="1.017" y2="0.5" gradientUnits="objectBoundingBox">
      <stop offset="0" stop-color="#445ea7"/>
      <stop offset="0.248" stop-color="#4f7cbc"/>
      <stop offset="1" stop-color="#89ddef"/>
    </linearGradient>
  </defs>
  <path id="Path_38007" data-name="Path 38007" d="M1377.844,347.521l-.377-.251c-88.916-54.731-196.787-86.782-313.026-86.782-10.126,0-20.126.251-30.085.712-3.306.167-6.611.334-9.917.586-.92.042-1.8.084-2.72.168A665.484,665.484,0,0,0,925.272,276.3c-.46.126-.921.209-1.381.335-1.883.418-3.808.878-5.69,1.3-.837.251-1.716.46-2.552.669l-.084-.042a592.4,592.4,0,0,0-397.3-31.759C200.554,331.914,12.177,658.748,97.913,976.418c85.652,317.169,415.625,505.671,732.333,418.47a594.188,594.188,0,0,0,418.8-718.734c-.711-2.887-1.464-5.816-2.259-8.7a592.492,592.492,0,0,0-97.243-201.306l-.209-.251a377.619,377.619,0,0,1,41.383,10.8c.544.168,1.088.335,1.632.544,2.218.711,4.477,1.423,6.695,2.217,1.255.418,2.469.879,3.724,1.3,2.762.962,5.481,1.966,8.2,3.055,1.8.669,3.6,1.423,5.356,2.134a364.758,364.758,0,0,1,46.839,22.528,20.718,20.718,0,0,0,20.729-.193l58.8-34.345L1442.2,415.8a12.586,12.586,0,0,0,1.783-20.465A542.048,542.048,0,0,0,1377.844,347.521Zm-543.2,835.727a401.953,401.953,0,0,1-59.793,21.214A396.584,396.584,0,1,1,569.566,438.32a403.589,403.589,0,0,1,62.388-11.548c-59.459,54.4-104.984,118.666-132.935,187.54,0,.084-.042.125-.042.167-30.838,76.112-40.169,157.873-23.055,238.337.251,1.3.544,2.553.837,3.849.293,1.339.586,2.637.92,3.975.46,2.092,1,4.184,1.507,6.277.167.669.335,1.3.5,1.966.335,1.255.67,2.553,1,3.808.335,1.3.711,2.594,1.046,3.849.167.628.376,1.3.544,1.925.586,2.092,1.213,4.142,1.841,6.192.377,1.339.795,2.636,1.172,3.933.418,1.256.795,2.469,1.213,3.724,25.441,78.246,74.4,144.4,139.128,194.9.042.042.084.042.126.084a396.983,396.983,0,0,0,241.726,79.417Q851.482,1175.758,834.64,1183.247Zm200.845-314.031A198.286,198.286,0,0,1,764.6,941.773a204.058,204.058,0,0,1-18.787-12.26,195.989,195.989,0,0,1-68.748-92.766c-.293-.753-.586-1.506-.837-2.3-.209-.586-.418-1.172-.628-1.8l-1-3.138c-.251-.837-.544-1.716-.795-2.595-.209-.669-.419-1.338-.586-2.008-.125-.377-.209-.753-.335-1.13-.209-.795-.46-1.59-.669-2.385l-.628-2.385c-.084-.419-.167-.8-.251-1.172-.167-.669-.377-1.338-.5-2.05-.209-.879-.418-1.758-.628-2.595-.167-.92-.377-1.8-.544-2.72A196.215,196.215,0,0,1,681.746,691.3c.042-.042.042-.084.084-.126a289.819,289.819,0,0,1,33.516-61.3c24.687-34.855,56.7-65.861,95.15-92.138a439.653,439.653,0,0,1,83.979-44.814,394.389,394.389,0,0,1,160.8,225.826A197.069,197.069,0,0,1,1035.485,869.217Z" transform="translate(-77.21 -226.389)" fill="#5faedf"/>
  <g id="Group_39041" data-name="Group 39041" transform="translate(0.011 0.001)">
    <path id="Path_38008" data-name="Path 38008" d="M826.171,1395.972C508.84,1481,182.658,1292.679,97.629,975.347S200.922,331.834,518.254,246.8A592.336,592.336,0,0,1,915.568,278.58q-8.636,2.071-17.281,4.385c-104.461,27.989-195.322,78.87-266.325,143.814a399.983,399.983,0,0,0-62.388,11.557,396.567,396.567,0,1,0,205.276,766.109,399.63,399.63,0,0,0,59.789-21.181q16.839-7.487,32.847-16.54a397.911,397.911,0,0,0,98.9-13.6c126.692-33.947,222.554-125.558,266.869-239.036A394.689,394.689,0,0,0,1246.8,667.43a594.843,594.843,0,0,1-420.625,728.542Z" transform="translate(-77.213 -226.389)" fill="url(#linear-gradient)"/>
    <path id="Path_38009" data-name="Path 38009" d="M663.724,943.407a476.919,476.919,0,0,1-56.982,11.624,441.648,441.648,0,0,1-95.108,3.159c-46.425-3.523-89.661-14.373-128.5-32.232A290.654,290.654,0,0,1,323.642,889.8a202.536,202.536,0,0,0,18.779,12.272A198.286,198.286,0,0,0,633.1,679.032,394.595,394.595,0,0,0,472.276,453.2q-11.668-7.864-23.951-14.963a395.556,395.556,0,0,0-143.839-49.53,390.345,390.345,0,0,0-58-3.736q-18.364.163-36.7,2.092c71-64.944,161.864-115.826,266.325-143.814q8.649-2.316,17.281-4.385a593.424,593.424,0,0,1,331.228,388.85,394.688,394.688,0,0,1-13.544,246.659q-4.08,2.944-8.26,5.8C761.364,908.506,714.563,929.783,663.724,943.407Z" transform="translate(344.957 -186.671)" fill="#5faedf"/>
    <path id="Path_38010" data-name="Path 38010" d="M669.416,1002.233A395.464,395.464,0,0,1,328.79,936.414a.683.683,0,0,1-.125-.1c-64.735-50.487-113.708-116.645-139.136-194.887-.418-1.243-.812-2.485-1.2-3.737q-.615-1.945-1.205-3.916-.935-3.088-1.816-6.205l-.544-1.917c-.352-1.272-.7-2.552-1.046-3.832s-.678-2.569-1.013-3.846l-.485-1.933q-.8-3.144-1.531-6.285c-.314-1.331-.619-2.665-.912-3.992-.293-1.276-.573-2.549-.833-3.833-17.1-80.476-7.77-162.254,23.051-238.345a.674.674,0,0,1,.059-.151c27.922-68.911,73.459-133.16,132.939-187.548q18.327-1.921,36.7-2.092a390.247,390.247,0,0,1,58,3.737,395.539,395.539,0,0,1,143.839,49.529q12.3,7.1,23.951,14.963a441.525,441.525,0,0,0-83.949,44.809C475.089,413.1,443.071,444.112,418.363,479a289.851,289.851,0,0,0-33.524,61.279.363.363,0,0,0-.05.117,196.331,196.331,0,0,0-12.126,119.189c.176.9.377,1.8.577,2.7.193.87.4,1.749.6,2.632.155.686.322,1.36.5,2.042.092.385.184.761.285,1.143.2.8.41,1.606.623,2.4s.435,1.594.661,2.389c.1.381.209.753.322,1.134.192.678.381,1.343.594,2.017.259.862.523,1.729.791,2.578.335,1.051.665,2.1,1.017,3.138.2.615.4,1.218.619,1.812.268.77.536,1.54.812,2.31a196.255,196.255,0,0,0,68.781,92.749,290.67,290.67,0,0,0,59.492,36.161c38.838,17.858,82.075,28.708,128.5,32.231a441.625,441.625,0,0,0,95.109-3.159,476.915,476.915,0,0,0,56.981-11.624c50.839-13.624,97.64-34.9,139.1-63.241q4.174-2.856,8.26-5.8C891.969,876.675,796.107,968.286,669.416,1002.233Z" transform="translate(219.754 -75.497)" fill="url(#linear-gradient-2)"/>
    <path id="Path_38011" data-name="Path 38011" d="M414.809,1060.335a592.3,592.3,0,0,0,328.177-226.16A596.166,596.166,0,0,0,851.845,554.732a593.2,593.2,0,0,0-16.411-222.939,394.691,394.691,0,0,1-13.545,246.659C777.573,691.93,681.712,783.541,555.02,817.488a397.873,397.873,0,0,1-98.9,13.6q-15.992,9.039-32.846,16.541a399.677,399.677,0,0,1-59.789,21.181,393.985,393.985,0,0,1-157.09,9.917" transform="translate(334.15 109.248)" fill="url(#linear-gradient-3)"/>
    <path id="Path_38012" data-name="Path 38012" d="M805.925,369.389a12.586,12.586,0,0,1-1.783,20.465l-99.506,58.124-58.8,34.345a20.719,20.719,0,0,1-20.729.193,364.7,364.7,0,0,0-46.839-22.528c-1.758-.711-3.557-1.465-5.356-2.134-2.72-1.088-5.44-2.092-8.2-3.055-1.255-.418-2.469-.879-3.724-1.3-2.217-.8-4.477-1.507-6.695-2.218-.544-.209-1.088-.377-1.632-.544a377.606,377.606,0,0,0-41.383-10.8A596.028,596.028,0,0,0,277.588,252.656c.837-.209,1.716-.418,2.553-.669,1.883-.419,3.808-.879,5.69-1.3.46-.126.921-.209,1.381-.335A665.484,665.484,0,0,1,383.659,236c.921-.084,1.8-.125,2.72-.168,3.306-.251,6.611-.418,9.917-.586,9.959-.46,19.959-.711,30.085-.711,116.239,0,224.11,32.052,313.026,86.782l.377.251A542.035,542.035,0,0,1,805.925,369.389Z" transform="translate(560.839 -200.439)" fill="url(#linear-gradient-4)"/>
  </g>
</svg>
