<svg xmlns="http://www.w3.org/2000/svg" width="262.745" height="159.189" viewBox="0 0 262.745 159.189">
  <g id="Session" transform="translate(0 0.005)">
    <circle id="Ellipse_428" data-name="Ellipse 428" cx="13.54" cy="13.54" r="13.54" transform="translate(8.211 7.452)" fill="#5faedf"/>
    <ellipse id="Ellipse_429" data-name="Ellipse 429" cx="130.694" cy="5.298" rx="130.694" ry="5.298" transform="translate(0 148.587)" fill="#e6e6e6"/>
    <circle id="Ellipse_430" data-name="Ellipse 430" cx="33.262" cy="33.262" r="33.262" transform="translate(0 20.96)" fill="#445ea7"/>
    <path id="Path_40728" data-name="Path 40728" d="M107.56,272.4h-6.813l3.106-105.2Z" transform="translate(-71.092 -117.988)" fill="#3f3d56"/>
    <path id="Path_40729" data-name="Path 40729" d="M111.179,210.676l7.314-10.119-7.414,12.623-.8-1.4Z" transform="translate(-77.816 -141.526)" fill="#3f3d56"/>
    <path id="Path_40730" data-name="Path 40730" d="M93.085,245.393l-7.314-10.119L93.185,247.9l.8-1.4Z" transform="translate(-60.524 -166.024)" fill="#3f3d56"/>
    <path id="Path_40731" data-name="Path 40731" d="M811.174,272.774h-6.812l3.106-105.2Z" transform="translate(-567.593 -118.253)" fill="#3f3d56"/>
    <path id="Path_40732" data-name="Path 40732" d="M814.793,211.052l7.314-10.119-7.414,12.623-.8-1.4Z" transform="translate(-574.318 -141.791)" fill="#3f3d56"/>
    <path id="Path_40733" data-name="Path 40733" d="M796.7,245.769l-7.313-10.119,7.414,12.623.8-1.4Z" transform="translate(-557.026 -166.289)" fill="#3f3d56"/>
    <circle id="Ellipse_431" data-name="Ellipse 431" cx="61.963" cy="61.963" r="61.963" transform="translate(73.163 30.577)" fill="#3f3d56"/>
    <circle id="Ellipse_432" data-name="Ellipse 432" cx="56.833" cy="56.833" r="56.833" transform="translate(78.292 35.706)" fill="#fff"/>
    <circle id="Ellipse_433" data-name="Ellipse 433" cx="7.591" cy="7.591" r="7.591" transform="translate(127.329 85.153)" fill="#3f3d56"/>
    <rect id="Rectangle_6352" data-name="Rectangle 6352" width="3.283" height="6.155" transform="translate(133.279 38.579)" fill="#3f3d56"/>
    <rect id="Rectangle_6353" data-name="Rectangle 6353" width="3.283" height="6.155" transform="translate(133.279 140.756)" fill="#3f3d56"/>
    <rect id="Rectangle_6354" data-name="Rectangle 6354" width="3.283" height="6.155" transform="translate(86.909 91.103) rotate(90)" fill="#3f3d56"/>
    <rect id="Rectangle_6355" data-name="Rectangle 6355" width="3.283" height="6.155" transform="translate(189.086 91.103) rotate(90)" fill="#3f3d56"/>
    <path id="Path_40734" data-name="Path 40734" d="M450.924,310.908l2.805-6.415,35.153,19.469Z" transform="translate(-318.192 -214.868)" fill="#3f3d56"/>
    <rect id="Rectangle_6356" data-name="Rectangle 6356" width="16.004" height="18.466" transform="translate(127.123 15.599)" fill="#3f3d56"/>
    <ellipse id="Ellipse_434" data-name="Ellipse 434" cx="18.466" cy="5.129" rx="18.466" ry="5.129" transform="translate(116.66 10.47)" fill="#3f3d56"/>
    <path id="Path_40735" data-name="Path 40735" d="M715.914,527.84l-1.026,1.436s-4.719,5.54-4.924,2.872,3.488-4.514,3.488-4.514L715.5,526.4Z" transform="translate(-546.217 -424.324)" fill="#ffb8b8"/>
    <path id="Path_40736" data-name="Path 40736" d="M825.885,547.161l.859,1.542s2.987,6.636.489,5.68-2.587-5.084-2.587-5.084l-.234-2.381Z" transform="translate(-626.982 -438.799)" fill="#ffb8b8"/>
    <circle id="Ellipse_435" data-name="Ellipse 435" cx="6.247" cy="6.247" r="6.247" transform="translate(188.037 68.527)" fill="#2f2e41"/>
    <path id="Path_40737" data-name="Path 40737" d="M811.751,607.212l.821,5.335v1.641h4.719v-2.052s.205-3.693-.616-4.719S811.751,607.212,811.751,607.212Z" transform="translate(-618.048 -481.126)" fill="#ffb8b8"/>
    <path id="Path_40738" data-name="Path 40738" d="M783.173,607.212l.821,5.335v1.641h4.719v-2.052s.205-3.693-.615-4.719S783.173,607.212,783.173,607.212Z" transform="translate(-597.883 -481.126)" fill="#ffb8b8"/>
    <path id="Path_40739" data-name="Path 40739" d="M791.543,462.384s-1.815.957-.575,3.133,8.513,24.69,8.513,24.69l4.2-1.191-3.7-14.238-2.119-8.949Z" transform="translate(-603.077 -379.148)" fill="#445ea7"/>
    <circle id="Ellipse_436" data-name="Ellipse 436" cx="4.719" cy="4.719" r="4.719" transform="translate(188.881 71.817)" fill="#ffb8b8"/>
    <path id="Path_40740" data-name="Path 40740" d="M806.917,442.063l-.616,9.643-4.309-3.078s1.436-5.745,1.026-6.155Z" transform="translate(-611.163 -364.809)" fill="#ffb8b8"/>
    <path id="Path_40741" data-name="Path 40741" d="M794.955,462.968l-4.642-3.437s-2.129-.872-2.745.154-3.693,16.209-2.052,19.081c0,0,8.823,1.847,10.669.821l.821-5.334s1.026-3.283-.616-5.335Z" transform="translate(-599.2 -376.892)" fill="#445ea7"/>
    <path id="Path_40742" data-name="Path 40742" d="M745.674,460.7s-1.641-1.231-3.078.821-18.671,18.261-18.671,18.261l2.872,3.283,11.285-9.438,7.181-5.745Z" transform="translate(-556.075 -377.703)" fill="#445ea7"/>
    <path id="Path_40743" data-name="Path 40743" d="M792.614,525.652s-10.156-1.949-11.182-.513l-.205,2.257S778.97,531.7,780.2,538.68a34.349,34.349,0,0,1,.41,11.285,45.374,45.374,0,0,1,9.643,0c4.1.616,4.719,0,4.719,0Z" transform="translate(-595.526 -423.058)" fill="#2f2e41"/>
    <path id="Path_40744" data-name="Path 40744" d="M817.7,628.868l-5.95.205,2.052,15.388s-1.641,6.566.205,6.976a20.817,20.817,0,0,0,3.9.41s1.847,1.847,3.9,1.641a11.49,11.49,0,0,0,3.9-1.231,1.275,1.275,0,0,0-1.026-1.641c-1.436-.41-5.335-1.641-6.155-5.95Z" transform="translate(-618.049 -496.627)" fill="#2f2e41"/>
    <path id="Path_40745" data-name="Path 40745" d="M789.123,628.868l-5.95.205,2.052,15.388s-1.641,6.566.205,6.976a20.817,20.817,0,0,0,3.9.41s1.847,1.847,3.9,1.641a11.489,11.489,0,0,0,3.9-1.231,1.275,1.275,0,0,0-1.026-1.641c-1.436-.41-5.335-1.641-6.155-5.95Z" transform="translate(-597.883 -496.627)" fill="#2f2e41"/>
    <circle id="Ellipse_437" data-name="Ellipse 437" cx="2.585" cy="2.585" r="2.585" transform="translate(193.884 65.615)" fill="#2f2e41"/>
    <path id="Path_40746" data-name="Path 40746" d="M827.309,400.349a2.585,2.585,0,0,0-2.316-2.571,2.585,2.585,0,1,1,0,5.142A2.585,2.585,0,0,0,827.309,400.349Z" transform="translate(-627.393 -333.549)" fill="#2f2e41"/>
    <ellipse id="Ellipse_438" data-name="Ellipse 438" cx="4.309" cy="2.585" rx="4.309" ry="2.585" transform="translate(189.249 70.865)" fill="#2f2e41"/>
    <path id="Path_40747" data-name="Path 40747" d="M922.121,192a13.151,13.151,0,0,0-25.8-2.773c-.159-.006-.318-.012-.479-.012a13.153,13.153,0,0,0-12.617,9.443,9.294,9.294,0,0,0-11.029,2.745h41.022a8.9,8.9,0,0,0,8.915-9.21Q922.127,192.1,922.121,192Z" transform="translate(-660.699 -179.599)" fill="#e6e6e6"/>
    <circle id="Ellipse_439" data-name="Ellipse 439" cx="3.532" cy="3.532" r="3.532" transform="translate(223.596 33.017)" fill="#e6e6e6"/>
    <circle id="Ellipse_440" data-name="Ellipse 440" cx="2.941" cy="2.941" r="2.941" transform="translate(234.853 25.28)" fill="#e6e6e6"/>
    <circle id="Ellipse_441" data-name="Ellipse 441" cx="3.532" cy="3.532" r="3.532" transform="translate(248.616 40.67)" fill="#e6e6e6"/>
    <circle id="Ellipse_442" data-name="Ellipse 442" cx="3.532" cy="3.532" r="3.532" transform="translate(221.83 56.859)" fill="#e6e6e6"/>
    <circle id="Ellipse_443" data-name="Ellipse 443" cx="3.532" cy="3.532" r="3.532" transform="translate(248.616 77.17)" fill="#e6e6e6"/>
    <path id="Path_40748" data-name="Path 40748" d="M956,674.281c0-.038.006-.076.006-.114a5.577,5.577,0,0,0-11.132-.292l-.053,0a5.324,5.324,0,0,0,8.229,6.682A3.529,3.529,0,1,0,956,674.281Z" transform="translate(-709.455 -525.469)" fill="#e6e6e6"/>
    <circle id="Ellipse_444" data-name="Ellipse 444" cx="1.472" cy="1.472" r="1.472" transform="translate(253.915 65.101)" fill="#e6e6e6"/>
    <circle id="Ellipse_445" data-name="Ellipse 445" cx="1.472" cy="1.472" r="1.472" transform="translate(244.495 29.779)" fill="#e6e6e6"/>
    <circle id="Ellipse_446" data-name="Ellipse 446" cx="1.472" cy="1.472" r="1.472" transform="translate(239.491 66.279)" fill="#e6e6e6"/>
    <circle id="Ellipse_447" data-name="Ellipse 447" cx="1.472" cy="1.472" r="1.472" transform="translate(240.669 64.807)" fill="#e6e6e6"/>
    <circle id="Ellipse_448" data-name="Ellipse 448" cx="1.472" cy="1.472" r="1.472" transform="translate(241.552 63.335)" fill="#e6e6e6"/>
    <circle id="Ellipse_449" data-name="Ellipse 449" cx="1.472" cy="1.472" r="1.472" transform="translate(238.02 75.698)" fill="#e6e6e6"/>
    <circle id="Ellipse_450" data-name="Ellipse 450" cx="1.472" cy="1.472" r="1.472" transform="translate(259.802 92.182)" fill="#e6e6e6"/>
    <circle id="Ellipse_451" data-name="Ellipse 451" cx="1.472" cy="1.472" r="1.472" transform="translate(228.306 93.065)" fill="#e6e6e6"/>
    <circle id="Ellipse_452" data-name="Ellipse 452" cx="1.472" cy="1.472" r="1.472" transform="translate(230.072 47.734)" fill="#e6e6e6"/>
    <circle id="Ellipse_453" data-name="Ellipse 453" cx="1.472" cy="1.472" r="1.472" transform="translate(236.842 74.226)" fill="#e6e6e6"/>
    <circle id="Ellipse_454" data-name="Ellipse 454" cx="1.472" cy="1.472" r="1.472" transform="translate(235.37 71.871)" fill="#e6e6e6"/>
  </g>
</svg>
