<?xml version="1.0" encoding="utf-8"?>
<!-- Generator: Adobe Illustrator 27.0.0, SVG Export Plug-In . SVG Version: 6.00 Build 0)  -->
<svg version="1.1" id="Layer_1" xmlns="http://www.w3.org/2000/svg" xmlns:xlink="http://www.w3.org/1999/xlink" x="0px" y="0px"
	 viewBox="0 0 470 185.6" style="enable-background:new 0 0 470 185.6;" xml:space="preserve">
<style type="text/css">
	.st0{filter:url(#Rectangle_1947);}
	.st1{fill:#FFFFFF;}
	.st2{fill:#EFF1F3;}
	.st3{opacity:0.3;fill:#0361CF;enable-background:new    ;}
</style>
<filter  filterUnits="userSpaceOnUse" height="52" id="Rectangle_1947" width="470" x="0" y="77.584">
	<feOffset  dy="1" input="SourceAlpha"></feOffset>
	<feGaussianBlur  result="blur" stdDeviation="1"></feGaussianBlur>
	<feFlood  flood-opacity="0.071"></feFlood>
	<feComposite  in2="blur" operator="in"></feComposite>
	<feComposite  in="SourceGraphic" operator="over"></feComposite>
</filter>
<g>
	<g>
		<g>
			<g transform="matrix(1, 0, 0, 1, 830, 512.42)" class="st0">
				<path id="Rectangle_1947-3_00000147183630346416601160000002646358172200051890_" class="st1" d="M-808.1-512.7h91.4
					c0.4,0,0.8,3.6,0.8,8.1v76.8c0,4.5-0.4,8.1-0.8,8.1h-91.4c-0.4,0-0.8-3.6-0.8-8.1v-76.8C-808.9-509-808.5-512.7-808.1-512.7z"/>
			</g>
			<g>
				<path id="Rectangle_3629" class="st2" d="M36.3,73.4h62.5c3.3,0,6,0.4,6,0.9v1.9c0,0.5-2.7,0.9-6,0.9H36.3c-3.3,0-6-0.4-6-0.9
					v-1.9C30.4,73.8,33.1,73.4,36.3,73.4z"/>
				<path id="Rectangle_3629_00000021840421764710433890000001602365279946238908_" class="st2" d="M47.9,81.4h39.4
					c2.1,0,3.8,0.4,3.8,0.9v1.9c0,0.5-1.7,0.9-3.8,0.9H47.9c-2.1,0-3.8-0.4-3.8-0.9v-1.9C44.2,81.9,45.8,81.4,47.9,81.4z"/>
				<path id="Rectangle_3630" class="st3" d="M53.6,7.3h27.9c7.7,0,14,6.2,14,14v27.9c0,7.7-6.2,14-14,14H53.6c-7.7,0-14-6.2-14-14
					V21.3C39.7,13.6,45.9,7.3,53.6,7.3z"/>
			</g>
		</g>
		<g>
			<g transform="matrix(1, 0, 0, 1, 830, 512.42)" class="st0">
				<path id="Rectangle_1947-3_00000013179414907569545560000011782136259895316900_" class="st1" d="M-584.9-512.7h91.4
					c0.4,0,0.8,3.6,0.8,8.1v76.8c0,4.5-0.4,8.1-0.8,8.1h-91.4c-0.4,0-0.8-3.6-0.8-8.1v-76.8C-585.7-509-585.3-512.7-584.9-512.7z"/>
			</g>
			<g>
				<path id="Rectangle_3629_00000045616730498176448640000000401833053540689561_" class="st2" d="M259.6,73.4H322
					c3.3,0,6,0.4,6,0.9v1.9c0,0.5-2.7,0.9-6,0.9h-62.5c-3.3,0-6-0.4-6-0.9v-1.9C253.6,73.8,256.3,73.4,259.6,73.4z"/>
				<path id="Rectangle_3629_00000042709825845478321980000015377107229190535588_" class="st2" d="M271.1,81.4h39.4
					c2.1,0,3.8,0.4,3.8,0.9v1.9c0,0.5-1.7,0.9-3.8,0.9h-39.4c-2.1,0-3.8-0.4-3.8-0.9v-1.9C267.4,81.9,269,81.4,271.1,81.4z"/>
				<path id="Rectangle_3630_00000149353536929661391910000015070657457355398064_" class="st3" d="M276.9,7.3h27.9
					c7.7,0,14,6.2,14,14v27.9c0,7.7-6.2,14-14,14h-27.9c-7.7,0-14-6.2-14-14V21.3C262.9,13.6,269.1,7.3,276.9,7.3z"/>
			</g>
		</g>
		<g>
			<g transform="matrix(1, 0, 0, 1, 830, 512.42)" class="st0">
				<path id="Rectangle_1947-3_00000037663286148437001490000008636699684567216061_" class="st1" d="M-473.3-512.7h91.4
					c0.4,0,0.8,3.6,0.8,8.1v76.8c0,4.5-0.4,8.1-0.8,8.1h-91.4c-0.4,0-0.8-3.6-0.8-8.1v-76.8C-474.1-509-473.7-512.7-473.3-512.7z"/>
			</g>
			<g>
				<path id="Rectangle_3629_00000154402408404399724770000012770352745379215505_" class="st2" d="M371.2,73.4h62.5
					c3.3,0,6,0.4,6,0.9v1.9c0,0.5-2.7,0.9-6,0.9h-62.5c-3.3,0-6-0.4-6-0.9v-1.9C365.2,73.8,367.9,73.4,371.2,73.4z"/>
				<path id="Rectangle_3629_00000139251407525778026060000014359437145794191771_" class="st2" d="M382.7,81.4h39.4
					c2.1,0,3.8,0.4,3.8,0.9v1.9c0,0.5-1.7,0.9-3.8,0.9h-39.4c-2.1,0-3.8-0.4-3.8-0.9v-1.9C379,81.9,380.6,81.4,382.7,81.4z"/>
				<path id="Rectangle_3630_00000035504701531227168650000015789578642017846172_" class="st3" d="M388.5,7.3h27.9
					c7.7,0,14,6.2,14,14v27.9c0,7.7-6.2,14-14,14h-27.9c-7.7,0-14-6.2-14-14V21.3C374.5,13.6,380.7,7.3,388.5,7.3z"/>
			</g>
		</g>
		<g>
			<g transform="matrix(1, 0, 0, 1, 830, 512.42)" class="st0">
				<path id="Rectangle_1947-3_00000135679648055944896740000010365524504804565892_" class="st1" d="M-696.5-512.7h91.4
					c0.4,0,0.8,3.6,0.8,8.1v76.8c0,4.5-0.4,8.1-0.8,8.1h-91.4c-0.4,0-0.8-3.6-0.8-8.1v-76.8C-697.3-509-696.9-512.7-696.5-512.7z"/>
			</g>
			<g>
				<path id="Rectangle_3629_00000083086422876211931430000009630632793609951627_" class="st2" d="M148,73.4h62.5
					c3.3,0,6,0.4,6,0.9v1.9c0,0.5-2.7,0.9-6,0.9H148c-3.3,0-6-0.4-6-0.9v-1.9C142,73.8,144.7,73.4,148,73.4z"/>
				<path id="Rectangle_3629_00000156563047913687658430000018030802394140624312_" class="st2" d="M159.5,81.4h39.4
					c2.1,0,3.8,0.4,3.8,0.9v1.9c0,0.5-1.7,0.9-3.8,0.9h-39.4c-2.1,0-3.8-0.4-3.8-0.9v-1.9C155.8,81.9,157.4,81.4,159.5,81.4z"/>
				<path id="Rectangle_3630_00000028292647344460480720000002559665358532853420_" class="st3" d="M165.2,7.3h27.9
					c7.7,0,14,6.2,14,14v27.9c0,7.7-6.2,14-14,14h-27.9c-7.7,0-14-6.2-14-14V21.3C151.3,13.6,157.5,7.3,165.2,7.3z"/>
			</g>
		</g>
	</g>
	<g>
		<g>
			<g transform="matrix(1, 0, 0, 1, 830, 512.42)" class="st0">
				<path id="Rectangle_1947-3_00000051372287576399074530000012093891729056544181_" class="st1" d="M-808.1-419.6h91.4
					c0.4,0,0.8,3.6,0.8,8.1v76.8c0,4.5-0.4,8.1-0.8,8.1h-91.4c-0.4,0-0.8-3.6-0.8-8.1v-76.8C-808.9-416-808.5-419.6-808.1-419.6z"/>
			</g>
			<g>
				<path id="Rectangle_3629_00000082365801100464766360000008185101685948735670_" class="st2" d="M36.3,166.4h62.5
					c3.3,0,6,0.4,6,0.9v1.9c0,0.5-2.7,0.9-6,0.9H36.3c-3.3,0-6-0.4-6-0.9v-1.9C30.4,166.9,33.1,166.4,36.3,166.4z"/>
				<path id="Rectangle_3629_00000062884134996893339010000007944673578354519427_" class="st2" d="M47.9,174.5h39.4
					c2.1,0,3.8,0.4,3.8,0.9v1.9c0,0.5-1.7,0.9-3.8,0.9H47.9c-2.1,0-3.8-0.4-3.8-0.9v-1.9C44.2,174.9,45.8,174.5,47.9,174.5z"/>
				<path id="Rectangle_3630_00000106842640868739333180000014036870167747650445_" class="st3" d="M53.6,100.4h27.9
					c7.7,0,14,6.2,14,14v27.9c0,7.7-6.2,14-14,14H53.6c-7.7,0-14-6.2-14-14v-27.9C39.7,106.7,45.9,100.4,53.6,100.4z"/>
			</g>
		</g>
		<g>
			<g transform="matrix(1, 0, 0, 1, 830, 512.42)" class="st0">
				<path id="Rectangle_1947-3_00000137840811756564758030000009571487132393226378_" class="st1" d="M-584.9-419.6h91.4
					c0.4,0,0.8,3.6,0.8,8.1v76.8c0,4.5-0.4,8.1-0.8,8.1h-91.4c-0.4,0-0.8-3.6-0.8-8.1v-76.8C-585.7-416-585.3-419.6-584.9-419.6z"/>
			</g>
			<g>
				<path id="Rectangle_3629_00000109733043241343417210000016580211667034737081_" class="st2" d="M259.6,166.4H322
					c3.3,0,6,0.4,6,0.9v1.9c0,0.5-2.7,0.9-6,0.9h-62.5c-3.3,0-6-0.4-6-0.9v-1.9C253.6,166.9,256.3,166.4,259.6,166.4z"/>
				<path id="Rectangle_3629_00000059991729748104085430000005445497985075158922_" class="st2" d="M271.1,174.5h39.4
					c2.1,0,3.8,0.4,3.8,0.9v1.9c0,0.5-1.7,0.9-3.8,0.9h-39.4c-2.1,0-3.8-0.4-3.8-0.9v-1.9C267.4,174.9,269,174.5,271.1,174.5z"/>
				<path id="Rectangle_3630_00000010274726386238340160000017493482411411191726_" class="st3" d="M276.9,100.4h27.9
					c7.7,0,14,6.2,14,14v27.9c0,7.7-6.2,14-14,14h-27.9c-7.7,0-14-6.2-14-14v-27.9C262.9,106.7,269.1,100.4,276.9,100.4z"/>
			</g>
		</g>
		<g>
			<g transform="matrix(1, 0, 0, 1, 830, 512.42)" class="st0">
				<path id="Rectangle_1947-3_00000171693814179032791780000016662209997263913118_" class="st1" d="M-473.3-419.6h91.4
					c0.4,0,0.8,3.6,0.8,8.1v76.8c0,4.5-0.4,8.1-0.8,8.1h-91.4c-0.4,0-0.8-3.6-0.8-8.1v-76.8C-474.1-416-473.7-419.6-473.3-419.6z"/>
			</g>
			<g>
				<path id="Rectangle_3629_00000021802182025785708430000013918860383544588947_" class="st2" d="M371.2,166.4h62.5
					c3.3,0,6,0.4,6,0.9v1.9c0,0.5-2.7,0.9-6,0.9h-62.5c-3.3,0-6-0.4-6-0.9v-1.9C365.2,166.9,367.9,166.4,371.2,166.4z"/>
				<path id="Rectangle_3629_00000095301695063748014390000010558263647134336389_" class="st2" d="M382.7,174.5h39.4
					c2.1,0,3.8,0.4,3.8,0.9v1.9c0,0.5-1.7,0.9-3.8,0.9h-39.4c-2.1,0-3.8-0.4-3.8-0.9v-1.9C379,174.9,380.6,174.5,382.7,174.5z"/>
				<path id="Rectangle_3630_00000155129102555899707450000003259098286232697005_" class="st3" d="M388.5,100.4h27.9
					c7.7,0,14,6.2,14,14v27.9c0,7.7-6.2,14-14,14h-27.9c-7.7,0-14-6.2-14-14v-27.9C374.5,106.7,380.7,100.4,388.5,100.4z"/>
			</g>
		</g>
		<g>
			<g transform="matrix(1, 0, 0, 1, 830, 512.42)" class="st0">
				<path id="Rectangle_1947-3_00000183970415127722409480000007629897485917472901_" class="st1" d="M-696.5-419.6h91.4
					c0.4,0,0.8,3.6,0.8,8.1v76.8c0,4.5-0.4,8.1-0.8,8.1h-91.4c-0.4,0-0.8-3.6-0.8-8.1v-76.8C-697.3-416-696.9-419.6-696.5-419.6z"/>
			</g>
			<g>
				<path id="Rectangle_3629_00000053531855476889582630000012775009296402748813_" class="st2" d="M148,166.4h62.5
					c3.3,0,6,0.4,6,0.9v1.9c0,0.5-2.7,0.9-6,0.9H148c-3.3,0-6-0.4-6-0.9v-1.9C142,166.9,144.7,166.4,148,166.4z"/>
				<path id="Rectangle_3629_00000008860463961708610250000018309381776183564469_" class="st2" d="M159.5,174.5h39.4
					c2.1,0,3.8,0.4,3.8,0.9v1.9c0,0.5-1.7,0.9-3.8,0.9h-39.4c-2.1,0-3.8-0.4-3.8-0.9v-1.9C155.8,174.9,157.4,174.5,159.5,174.5z"/>
				<path id="Rectangle_3630_00000152247120044001086930000014998219161764777346_" class="st3" d="M165.2,100.4h27.9
					c7.7,0,14,6.2,14,14v27.9c0,7.7-6.2,14-14,14h-27.9c-7.7,0-14-6.2-14-14v-27.9C151.3,106.7,157.5,100.4,165.2,100.4z"/>
			</g>
		</g>
	</g>
</g>
</svg>
