<svg height="20" width="20" viewBox="0 0 32 32" xmlns="http://www.w3.org/2000/svg"><g fill="none" fill-rule="evenodd"><path d="M0 0h32v32H0z" fill="#fff"></path><g fill-rule="nonzero"><path d="M8.082 7h6.478c.904 0 1.466.816 1.256 1.821L12.8 23.163c-.213 1.002-1.118 1.819-2.023 1.819H4.3c-.903 0-1.467-.817-1.256-1.819L6.061 8.821c.211-1.005 1.116-1.82 2.021-1.82" fill="#dd2423"></path><path d="M14.02 7h7.45c.904 0 .496.816.284 1.821l-3.016 14.342c-.211 1.002-.145 1.819-1.051 1.819h-7.45c-.905 0-1.466-.817-1.253-1.819L12 8.821c.214-1.005 1.117-1.82 2.022-1.82" fill="#16315e"></path><path d="M21.174 7h6.478c.905 0 1.468.816 1.255 1.821l-3.015 14.342c-.213 1.002-1.119 1.819-2.024 1.819h-6.475c-.906 0-1.468-.817-1.255-1.819l3.015-14.342c.211-1.005 1.115-1.82 2.021-1.82" fill="#036862"></path><path d="M9.774 11.596c-.666.008-.863 0-.926-.016-.024.127-.473 2.424-.475 2.426-.096.464-.167.796-.406 1.01a.682.682 0 0 1-.478.184c-.295 0-.468-.163-.496-.47l-.006-.107.09-.625s.472-2.094.556-2.37a.22.22 0 0 0 .007-.032c-.918.01-1.08 0-1.092-.016a4.287 4.287 0 0 0-.029.152l-.482 2.36-.041.2-.08.654c0 .194.034.352.103.486.22.425.845.489 1.2.489.456 0 .884-.108 1.173-.304.502-.328.633-.842.75-1.298l.055-.235s.486-2.173.568-2.456c.004-.016.005-.024.009-.032zm1.654 1.754a1.18 1.18 0 0 0-.524.136c-.07.04-.136.085-.205.131l.062-.251-.034-.043c-.408.092-.5.104-.876.163l-.031.023a13.64 13.64 0 0 1-.245 1.493c-.062.291-.126.585-.19.876l.017.037a8.46 8.46 0 0 1 .839-.017l.027-.033c.043-.241.048-.298.143-.788.044-.232.136-.743.182-.924a.583.583 0 0 1 .246-.086c.188 0 .165.182.157.254a9.978 9.978 0 0 1-.146.86l-.047.22c-.033.162-.069.32-.101.481l.014.033c.38-.023.496-.023.821-.017l.038-.033c.06-.377.076-.478.18-1.028l.053-.253c.102-.495.153-.746.076-.95-.082-.229-.277-.284-.456-.284zm1.847.518c-.203.043-.332.072-.46.09-.127.023-.25.043-.446.073l-.016.016-.014.012c-.02.161-.035.3-.062.465-.022.17-.058.362-.115.638a2.718 2.718 0 0 1-.092.36c-.025.075-.052.147-.102.356l.012.019.01.018c.182-.01.301-.017.424-.018.123-.005.25 0 .447.001l.017-.016.019-.017c.028-.187.032-.238.05-.33.017-.098.046-.234.12-.597.034-.171.072-.341.108-.515.037-.174.076-.345.113-.515l-.006-.021zm.004-.698c-.184-.12-.506-.082-.723.084-.217.162-.242.393-.058.515.18.117.504.082.72-.086.215-.166.242-.394.061-.513zm1.111 2.782c.372 0 .753-.113 1.04-.45.22-.273.322-.68.357-.847.114-.555.025-.814-.086-.972-.17-.24-.47-.317-.78-.317-.187 0-.632.02-.98.375-.25.257-.365.604-.435.938-.07.34-.151.95.356 1.178.157.075.383.095.528.095zm-.029-1.248c.086-.42.187-.773.446-.773.202 0 .217.263.127.684-.016.094-.09.442-.19.59-.07.109-.153.175-.244.175-.027 0-.189 0-.191-.265a1.992 1.992 0 0 1 .052-.411zm2.356 1.194l.029-.033c.04-.241.048-.298.139-.788.046-.232.14-.743.184-.924.084-.043.166-.086.247-.086.187 0 .164.182.157.254a9.065 9.065 0 0 1-.147.86l-.044.22c-.034.162-.071.32-.104.481l.014.033a8.12 8.12 0 0 1 .82-.017l.04-.033c.057-.377.073-.479.18-1.028l.051-.253c.102-.495.154-.746.078-.95-.083-.229-.28-.284-.457-.284a1.17 1.17 0 0 0-.524.136c-.068.04-.137.085-.204.131l.059-.251-.032-.043c-.407.092-.5.104-.877.163l-.029.023c-.045.402-.082.704-.245 1.494-.061.29-.125.584-.19.875l.018.037c.386-.023.502-.023.837-.017zm2.805.016l.167-.898s.122-.565.13-.585c0 0 .037-.059.076-.082h.056c.53 0 1.129 0 1.598-.383.32-.262.538-.65.636-1.12.025-.116.043-.253.043-.39a.885.885 0 0 0-.127-.498c-.239-.371-.716-.378-1.266-.38l-.271.002c-.704.01-.987.007-1.103-.009l-.028.158-.252 1.297-.633 2.884c.615-.008.867-.008.974.004zm.467-2.3l.267-1.288.009-.066.003-.05.108.011.566.054c.218.094.308.335.245.65-.057.288-.225.53-.442.646-.178.1-.396.108-.621.108h-.146zm1.67 1.114c-.07.335-.152.946.353 1.164a.902.902 0 0 0 .452.09c.155-.009.298-.095.431-.219l-.036.153.023.033c.363-.017.476-.017.87-.014l.035-.03c.058-.374.112-.738.261-1.454l.22-1.024-.011-.037c-.407.083-.515.1-.906.162l-.03.027-.012.102a.577.577 0 0 0-.284-.26c-.174-.076-.583.022-.934.376-.246.253-.365.599-.432.93zm.854.02c.087-.412.187-.761.446-.761.163 0 .25.167.232.453l-.047.23c-.026.123-.054.245-.081.366a.928.928 0 0 1-.096.214.432.432 0 0 1-.316.17c-.026 0-.186 0-.191-.261-.002-.13.023-.264.053-.41zm4.457-1.362l-.032-.04c-.402.09-.474.105-.844.16l-.027.03-.004.02-.002-.007c-.275.703-.267.551-.49 1.104l-.003-.067-.056-1.2-.035-.04c-.421.09-.431.105-.82.16l-.03.03c-.005.015-.005.03-.008.048l.003.006c.049.275.037.214.086.648.022.213.053.428.075.638.039.353.06.526.107 1.064-.263.48-.325.662-.578 1.083l.002.005-.178.312c-.02.032-.039.055-.065.065a.245.245 0 0 1-.116.018h-.1l-.146.54.503.01a.613.613 0 0 0 .581-.36l.317-.6h-.005l.033-.043c.213-.508 1.832-3.584 1.832-3.584zm-5.31 7.098h-.214l.79-2.895h.262l.083-.298.008.331c-.01.205.136.387.518.357h.443l.152-.557h-.167c-.095 0-.14-.027-.134-.085L23.393 17h-.82v.002c-.264.006-1.055.028-1.215.075a1.386 1.386 0 0 0-.398.218l.08-.298h-.765l-.16.592-.8 2.939h-.156l-.152.553h1.525l-.05.185h.751l.05-.185h.21zm-.627-2.307a3.234 3.234 0 0 0-.35.152l.202-.74h.609l-.147.539s-.188.012-.314.05zm.012 1.057s-.191.027-.317.058a2.959 2.959 0 0 0-.357.173l.21-.77h.612zm-.341 1.256h-.61l.176-.65h.609zm1.47-1.795h.88l-.126.454h-.892l-.134.496h.78l-.59.921a.25.25 0 0 1-.12.11.326.326 0 0 1-.159.051h-.216l-.149.544h.566c.295 0 .468-.149.597-.343l.405-.615.087.624a.29.29 0 0 0 .146.212c.056.031.115.085.198.093.088.005.152.008.195.008h.278l.167-.608h-.11c-.063 0-.171-.012-.19-.034-.018-.026-.018-.067-.028-.13l-.088-.624h-.362l.159-.21h.89l.137-.495h-.824l.128-.454h.822l.152-.56h-2.449zm-7.433 1.922l.206-.757h.844l.154-.563H15.1l.13-.466h.825l.153-.545h-2.066l-.15.545h.47l-.126.466h-.47l-.157.572h.47l-.274 1.002c-.037.132.017.183.052.244.035.06.07.1.15.123.084.02.14.032.217.032h.952l.17-.623-.422.064c-.082 0-.307-.01-.283-.094zm.097-3.624l-.214.429a.492.492 0 0 1-.124.178c-.033.022-.097.032-.191.032h-.112l-.149.548h.37a.779.779 0 0 0 .381-.109c.07-.041.089-.018.143-.076l.125-.12h1.158l.154-.57h-.848l.148-.312zm1.71 3.635c-.02-.032-.006-.087.024-.203l.316-1.16h1.126c.164-.002.282-.004.36-.01a.688.688 0 0 0 .27-.102.532.532 0 0 0 .197-.2c.048-.075.127-.238.194-.488l.398-1.468-1.168.007s-.36.059-.518.124c-.16.072-.388.274-.388.274l.105-.402h-.721l-1.01 3.71a2.5 2.5 0 0 0-.066.312c-.002.068.077.135.128.186.06.05.15.042.236.05.09.008.218.012.395.012h.555l.17-.636-.497.052a.127.127 0 0 1-.107-.058zm.544-2.146h1.182l-.075.26c-.01.007-.036-.012-.156.004H17.02zm.237-.875h1.192l-.085.314s-.562-.006-.652.012c-.396.076-.628.31-.628.31zm.897 2.01a.142.142 0 0 1-.047.08c-.024.017-.063.023-.12.023h-.17l.01-.317h-.7l-.029 1.553c0 .112.01.177.083.23.074.064.302.072.61.072h.439l.158-.581-.382.023-.127.008a.147.147 0 0 1-.053-.036c-.016-.018-.043-.007-.039-.119l.003-.398.401-.019a.493.493 0 0 0 .388-.152c.076-.071.1-.153.129-.264l.067-.352h-.551z" fill="#fefefe"></path></g></g></svg>