<?xml version="1.0" standalone="no"?>
<!DOCTYPE svg PUBLIC "-//W3C//DTD SVG 20010904//EN"
 "http://www.w3.org/TR/2001/REC-SVG-20010904/DTD/svg10.dtd">
<svg version="1.0" xmlns="http://www.w3.org/2000/svg"
 width="288.000000pt" height="288.000000pt" viewBox="0 0 288.000000 288.000000"
 preserveAspectRatio="xMidYMid meet" style="background-color:#f3db4c">
<g transform="translate(0.000000,288.000000) scale(0.100000,-0.100000)"
fill="#000000" stroke="none">
<path d="M2030 1549 c-102 -40 -170 -103 -213 -197 -17 -37 -21 -67 -21 -142
-1 -86 2 -101 31 -162 18 -39 51 -86 77 -112 43 -41 69 -56 356 -195 115 -56
148 -126 97 -202 -29 -44 -65 -60 -142 -67 -97 -7 -156 17 -231 94 l-60 63
-85 -50 c-46 -28 -94 -57 -107 -65 l-22 -15 29 -43 c104 -151 257 -226 461
-226 160 0 267 38 355 126 68 68 95 137 95 249 0 100 -19 166 -69 231 -52 69
-134 123 -304 200 -82 37 -161 80 -177 95 -81 81 -23 209 94 209 39 0 124 -49
146 -85 l21 -34 42 26 c115 71 167 106 167 113 0 14 -57 86 -95 119 -22 19
-64 46 -95 60 -48 22 -70 26 -175 28 -103 3 -128 0 -175 -18z"/>
<path d="M1295 1548 c-3 -7 -6 -237 -7 -510 l-3 -497 -29 -30 c-34 -35 -71
-46 -132 -36 -45 6 -87 38 -130 100 l-21 29 -106 -63 c-59 -35 -107 -68 -107
-73 0 -26 78 -123 128 -159 85 -60 169 -82 300 -77 89 3 117 8 162 29 100 47
159 112 196 219 18 51 19 89 19 565 l0 510 -133 3 c-100 2 -134 -1 -137 -10z"/>
</g>
</svg>
