<?xml version="1.0" encoding="utf-8"?>
<!-- Generator: Adobe Illustrator 25.2.3, SVG Export Plug-In . SVG Version: 6.00 Build 0)  -->
<svg version="1.1" id="Layer_1" xmlns="http://www.w3.org/2000/svg" xmlns:xlink="http://www.w3.org/1999/xlink" x="0px" y="0px"
	 viewBox="0 0 30 30" style="enable-background:new 0 0 30 30;" xml:space="preserve">
<style type="text/css">
	.st0{fill:#2E0302;}
	.st1{opacity:0.2;fill:#5D5D5D;enable-background:new    ;}
	.st2{opacity:0.4;fill:#FFFFFF;}
	.st3{fill:#0086D3;}
	.st4{fill:#FFFFFF;}
	.st5{fill:#008200;}
	.st6{fill:#13569D;}
	.st7{fill:#E28D30;}
	.st8{fill:#EC3F14;}
	.st9{fill:#AFAFAF;}
	.st10{fill:#008A97;}
	.st11{fill:#00B96C;}
	.st12{fill:#572BAE;}
	.st13{fill:#E24C3F;}
	.st14{fill:#E23508;}
	.st15{fill:#071D34;}
	.st16{fill:#7F0071;}
	.st17{fill:#3549B3;}
	.st18{fill:#5B9C8F;}
	.st19{fill:#0E439C;}
	.st20{fill:#FF6D5D;}
	.st21{fill:#FB3A2F;}
	.st22{fill:#007E3A;}
	.st23{fill:#FF7300;}
	.st24{fill:#400735;}
	.st25{fill:#FF4535;}
	.st26{fill:#4167E0;}
</style>
<g>
	<g>
		<path class="st26" d="M30,25.3c0,2.6-2.1,4.7-4.7,4.7H4.7C2.1,30,0,27.9,0,25.3V6.1L6.1,0h19.2C27.9,0,30,2.1,30,4.7V25.3z"/>
		<polygon class="st1" points="0,9.4 0,6.1 3.3,6.1 		"/>
		<path class="st2" d="M0,6.1h4.1c1.1,0,2-0.9,2-2V0L0,6.1z"/>
	</g>
</g>
<g>
	<path class="st4" d="M7.9,17c0.2,0.7,0.7,1.1,1.5,1.1c0.8,0,1.2-0.3,1.2-0.9c0-0.6-0.3-0.9-1.6-1.1c-2-0.5-2.5-1.2-2.5-2.2
		c0-1.3,1-2.1,2.7-2.1c1.9,0,2.7,1,2.8,2.1h-1.6c-0.1-0.5-0.3-0.9-1.3-0.9c-0.6,0-1,0.3-1,0.8c0,0.5,0.3,0.7,1.5,1
		c2.1,0.5,2.6,1.3,2.6,2.3c0,1.3-1,2.2-2.9,2.2c-1.9,0-2.8-0.9-3-2.2H7.9z"/>
	<path class="st4" d="M14.3,13.7c0.5,1.9,1,3.5,1.1,4.1h0c0.2-0.9,0.7-2.5,1.2-4.1H18l-1.9,5.5h-1.6l-1.9-5.5H14.3z"/>
	<path class="st4" d="M23.6,18.5c0,1.8-0.6,2.9-2.7,2.9c-2,0-2.4-1.1-2.4-1.7H20c0.1,0.4,0.4,0.6,1,0.6c1,0,1.2-0.6,1.2-1.7v-0.3
		c-0.3,0.5-0.7,0.8-1.5,0.8c-1.4,0-2.3-1.2-2.3-2.7c0-1.7,1-2.9,2.4-2.9c0.9,0,1.3,0.4,1.4,0.7c0-0.1,0.1-0.5,0.1-0.6h1.4
		c0,0.5,0,1,0,1.6V18.5z M21,17.8c0.9,0,1.2-0.6,1.2-1.5s-0.2-1.6-1.1-1.6c-0.7,0-1.2,0.5-1.2,1.6C19.9,17.3,20.4,17.8,21,17.8z"/>
</g>
</svg>
