<svg id="Layer_1" class="document-icon" version="1.1"
    xmlns="http://www.w3.org/2000/svg"
    xmlns:xlink="http://www.w3.org/1999/xlink" x="0px" y="0px" viewBox="0 0 16.2 18" xml:space="preserve">
    <g id="Group_5340" transform="translate(-207.348 -290.319)">
        <path id="Path_3450" fill="#757A85" d="M211.9,308.3c-0.9,0-1.6-0.7-1.6-1.6v-12c0-0.9,0.7-1.5,1.6-1.6h5.9c0.6,0.1,1.3,0.3,1.7,0.8c1.3,0.9,2.4,2,3.3,3.2c0.4,0.5,0.7,1,0.8,1.7v7.9c0,0.9-0.7,1.5-1.6,1.6L211.9,308.3z M211.9,294.6c-0.1,0-0.1,0-0.1,0.1v12c0,0.1,0.1,0.1,0.1,0.1H222c0.1,0,0.1,0,0.1-0.1V299l-3.8,0c-0.4,0-0.7-0.3-0.7-0.7v-3.7L211.9,294.6z M219,297.6l2.1,0c-0.3-0.4-0.6-0.8-1-1.1c-0.4-0.3-0.7-0.7-1.1-1l0,0L219,297.6z"></path>
        <path id="Path_3451" fill="#757A85" d="M208.6,306.1c-0.7-0.1-1.3-0.8-1.3-1.5v-12.7c0-0.9,0.7-1.6,1.6-1.6h6.5c0.6,0.1,1.2,0.3,1.7,0.8c0.2,0.1,0.3,0.2,0.5,0.4l0.4,0.3l-9.2,0c-0.1,0-0.1,0-0.1,0.1v14.2L208.6,306.1z"></path>
    </g>
</svg>